<svg width="123" height="21" viewBox="0 0 123 21" fill="none" xmlns="http://www.w3.org/2000/svg">
<g clip-path="url(#clip0_56_160)">
<path d="M7.64301 20.8075H10.2558L6.57144 4.73366L5.81707 1.09998H5.12777L4.37137 4.73366L0.69104 20.8075H3.30591L3.85694 18.3575H7.08994L7.64301 20.8075ZM4.42221 15.8585L5.47141 11.1922L6.53281 15.8585H4.42221Z" fill="black"/>
<path d="M28.8467 20.8075H31.4575L27.7771 4.73171L27.0228 1.09802H26.3335L25.5791 4.73171L21.8967 20.8055H24.5116L25.0647 18.3556H28.2956L28.8467 20.8075ZM25.6259 15.8585L26.6751 11.1923L27.7344 15.8585H25.6259Z" fill="black"/>
<path d="M60.9326 20.8075H63.5454L59.861 4.73366L59.1046 1.09998H58.4174L57.665 4.73366L53.9827 20.8075H56.5975L57.1486 18.3575H60.3795L60.9326 20.8075ZM57.7118 15.8585L58.761 11.1922L59.8183 15.8585H57.7118Z" fill="black"/>
<path d="M21.0976 3.60685C20.2883 2.02263 18.623 1.12354 16.3172 1.12354H15.0769H12.462V20.782H15.0769V15.7525H16.3172C18.7674 15.7525 20.5079 14.7337 21.2481 12.9472C21.4839 12.3721 21.6446 11.31 21.6446 8.31631C21.6466 5.3167 21.4433 4.28215 21.0976 3.60685ZM18.9484 11.9991C18.5986 12.9335 17.7101 13.4184 16.2481 13.4184H15.0769V3.45569H16.2481C17.5942 3.45569 18.4543 3.91113 18.8548 4.73759C19.0195 5.07524 19.1863 5.56405 19.1863 8.44588C19.1863 11.3277 19.0643 11.6869 18.9484 11.9991Z" fill="black"/>
<path d="M43.7164 20.8075L40.3675 13.5499C41.3882 13.0768 42.1365 12.3092 42.5574 11.2904C42.7485 10.8291 42.9498 10.036 42.9498 7.53892C42.9498 5.0399 42.6855 4.15847 42.4069 3.6088C41.5977 2.02459 39.9303 1.12549 37.6266 1.12549H33.7714V20.7819H36.3842V14.0937H37.6245H37.6408L40.705 20.8075H43.7164ZM36.3862 3.45568H37.5574C38.9035 3.45568 39.7636 3.91112 40.1642 4.73758C40.3126 5.04382 40.4631 5.47178 40.4915 7.67633C40.4671 9.74936 40.3614 10.0654 40.2577 10.3383C39.9059 11.2747 39.0174 11.7596 37.5574 11.7596H36.3862V3.45568Z" fill="black"/>
<path d="M53.5129 1.09998H45.099V3.73837H48.0006V20.782H50.6114V3.73837H53.5129V1.09998Z" fill="black"/>
<path d="M110.949 1.09998H102.537V3.73837H105.436V20.782H108.051V3.73837H110.949V1.09998Z" fill="black"/>
<path d="M83.8909 18.1632V13.0356H86.7904V10.4168H83.8909V3.73837H87.5265V1.09998H81.4163V1.1255H81.2781V20.782H81.4163H83.8909H88.0613V18.1632H83.8909Z" fill="black"/>
<path d="M75.5258 1.12354L71.7825 9.71992L68.0289 1.12354H65.4141V20.782H68.0289L67.9862 9.96335L68.0289 8.25545L71.7825 16.8165L75.5258 8.2849L75.5685 9.84164L75.5258 20.782H78.1387V1.12354H75.5258Z" fill="black"/>
<path d="M97.3781 1.09998V11.6261L91.2313 1.09998H90.5481V20.8075H93.1589V10.0163L99.448 20.8075H99.9868V1.09998H97.3781Z" fill="black"/>
<path d="M122.691 6.04109C122.691 2.75094 120.042 0.954712 117.781 0.954712C115.036 0.954712 112.874 2.99437 112.874 6.04109V15.8644C112.874 19.1565 115.522 20.9547 117.781 20.9547C120.528 20.9547 122.691 18.9131 122.691 15.8644V6.04109ZM120.058 15.8644C120.058 16.6673 119.907 18.5146 117.781 18.5146C116.422 18.5146 115.485 17.3701 115.485 15.8644V6.04109C115.485 5.23818 115.654 3.39484 117.781 3.39484C119.139 3.39484 120.058 4.53932 120.058 6.04109V15.8644Z" fill="black"/>
</g>
<defs>
<clipPath id="clip0_56_160">
<rect width="122" height="20" fill="white" transform="translate(0.69104 0.954712)"/>
</clipPath>
</defs>
</svg>
