<svg width="86" height="26" viewBox="0 0 86 26" fill="none" xmlns="http://www.w3.org/2000/svg">
<path d="M10.6843 12.4844L10.7559 12.2307C10.7559 12.2307 11.1238 12.0498 11.3025 11.8977C11.5738 11.667 11.6553 11.6159 11.8648 11.2934C12.1303 10.8837 12.1092 8.61568 12.1973 7.93856C12.2288 7.69865 12.1191 6.54367 12.1427 6.21264C12.1743 5.77609 12.1454 5.36903 11.7821 5.08323C11.4602 4.83021 10.5004 4.63946 10.4228 4.62177C9.46501 4.40807 6.97583 3.82206 6.6848 3.76438C6.32282 3.69293 5.38535 4.74893 5.49638 5.12584C5.83471 6.27623 5.74799 7.46857 5.84325 8.63993C5.94967 9.94961 6.35567 19.6306 6.13822 20.0907C5.89777 20.5974 6.43976 21.6705 6.98568 21.8586C8.15242 22.2617 10.5477 22.128 10.5477 22.128C10.5477 22.128 12.2518 21.9386 12.3175 21.932C12.7228 21.894 12.9803 20.3936 13.0519 19.921C13.1998 18.9462 12.4857 13.9887 12.3214 13.4624C12.1572 12.9354 10.6843 12.4844 10.6843 12.4844ZM7.71095 10.7873C7.7149 10.6261 7.71161 10.4642 7.71161 10.3023C7.59993 9.10074 7.76942 7.88218 7.50467 6.68919C7.48168 6.58562 7.49482 6.47419 7.48891 6.36669C7.47839 6.16283 10.302 6.41847 10.302 6.41847C10.302 6.41847 10.4012 10.4229 10.2067 10.6844C9.93079 11.0561 7.70438 11.0594 7.71095 10.7873ZM11.2894 17.318C11.2736 17.9591 11.3084 18.6015 11.2276 19.2425C11.1954 19.4982 11.0936 19.6083 10.8551 19.6896C10.1798 19.9196 9.48472 19.9747 8.7831 19.955C8.27462 19.9406 8.02366 19.6594 7.96125 19.1665C7.91789 18.8263 7.9803 18.4953 7.98424 18.1616C7.99279 17.4275 7.91592 16.6927 7.92118 15.9578C7.92775 15.0795 7.89818 15.1778 7.86731 14.3021C7.85483 13.9553 7.97636 13.8118 8.32914 13.8203C8.92434 13.8341 10.7047 14.0012 10.8032 14.1323C11.2066 14.6665 11.3399 16.5852 11.2894 17.318Z" fill="black"/>
<path d="M56.7475 13.3098C56.7751 12.7552 56.779 12.1384 56.1648 11.7726C56.0341 11.6946 55.2286 11.7195 55.0362 11.5524C54.9783 11.5026 54.9442 11.4855 54.9908 11.4082C55.0375 11.3308 55.4448 11.2731 55.6465 11.1597C55.814 11.066 56.0163 5.35339 55.0736 4.6979C54.3575 4.19973 51.7494 4.32493 51.3638 4.21546C50.5656 3.988 49.6761 4.64415 49.5368 5.43402C49.4107 6.14851 49.4028 18.4678 49.3286 19.124C49.2195 20.0817 49.5014 20.4061 50.1399 20.9043C51.055 21.6181 54.3109 21.5054 55.5203 21.4798C55.9953 21.47 56.9249 20.8414 56.9249 20.8414L57.0451 19.5848C57.0458 19.5848 56.689 14.4726 56.7475 13.3098ZM51.6115 11.0863C51.8197 9.60492 51.7021 8.10974 51.8151 6.62439C51.8434 6.25666 52.1561 6.15899 52.3939 6.13999C53.3695 6.06133 53.7078 6.36613 53.8024 7.45359C53.8615 8.13268 53.9857 8.8098 53.9522 9.53019C54.2097 10.7317 52.9372 11.4586 51.8256 11.4062C51.6115 11.3957 51.5911 11.2292 51.6115 11.0863ZM54.6531 19.5402C53.8103 19.5559 52.9615 19.6739 52.1292 19.4504C51.8585 19.3777 51.7356 19.1823 51.804 18.8965C51.8381 18.7536 51.6489 14.8036 51.643 14.5218C51.6378 14.2543 51.5451 13.9403 51.6535 13.7312C51.7632 13.5195 53.8924 13.5123 54.6499 13.3143C54.9429 13.2377 54.9337 13.5661 54.9448 13.7326C54.979 14.2274 54.9665 16.6698 54.9711 17.1673C54.9718 17.2073 54.9258 18.4744 55.0243 19.0617C55.0756 19.3691 54.9626 19.5343 54.6531 19.5402Z" fill="black"/>
<path d="M80.2269 17.9952C80.129 16.8822 79.6494 13.7404 79.6357 12.6202C79.6324 12.3639 79.9365 12.4307 80.0679 12.1967C80.3728 11.6546 80.7466 8.28736 80.7098 7.56108C80.7827 6.72401 80.5981 5.94004 80.0305 5.37173C79.4057 4.74508 78.6371 4.25543 77.6917 4.24691C76.8686 4.2397 76.0566 4.08107 75.2157 4.24166C74.6691 4.34589 74.3006 4.39046 73.7658 4.57006C73.3743 4.70182 73.0543 4.88339 73.0136 5.35862C72.9157 6.48672 72.7364 7.61679 72.8559 8.74817C73.0235 10.3338 72.8297 11.924 72.8947 13.5123C72.9545 14.9727 72.5879 18.1348 72.8553 19.5926C72.8625 19.632 72.8592 19.6739 72.8559 19.7139C72.7902 20.4717 72.9565 20.7411 73.6692 21.0282C74.1863 21.236 74.882 20.8112 74.8038 20.2711C74.7223 19.7073 74.8879 19.1803 74.9155 18.6382C74.9661 17.6366 75.1763 14.9327 75.1907 13.9239C75.196 13.5837 75.3517 13.5143 75.6513 13.5641C76.2097 13.6558 76.7694 13.7574 77.3324 13.8027C77.6799 13.8302 77.7942 13.9797 77.8317 14.2995C78.0123 15.8399 78.3375 19.0663 78.6621 20.5811C78.7468 20.9751 79.2441 21.5624 79.6672 21.5027C80.6106 21.3697 81.1828 20.5588 80.7255 19.7329C80.4273 19.1915 80.2795 18.5891 80.2269 17.9952ZM78.8854 7.60762C78.7659 8.52334 78.4052 10.497 78.4026 10.577C78.3776 11.2102 78.2843 11.3092 77.632 11.3243C77.0098 11.3387 76.4002 11.458 75.7846 11.5242C75.4489 11.5602 75.3142 11.4324 75.3346 11.0942C75.4292 9.52362 75.5034 7.95175 75.6105 6.3825C75.6493 5.81091 75.8214 5.68178 76.504 5.76372C76.8752 5.80829 77.249 5.79715 77.6215 5.84762C77.9953 5.89809 78.2685 6.04951 78.5556 6.25337C78.8414 6.45723 78.8046 6.77186 78.8762 7.04455C78.9229 7.22088 78.8854 7.41883 78.8854 7.60762Z" fill="black"/>
<path d="M35.1615 19.1986C35.0518 19.1829 34.946 19.1718 34.8429 19.2124C34.3653 19.4025 33.8621 19.4097 33.3648 19.375C32.5606 19.3192 31.7585 19.2262 30.9557 19.1495C30.8145 19.1344 30.5372 19.3101 30.5865 18.9804C30.7284 18.0292 30.6332 17.0598 30.7593 16.1185C30.9465 14.7203 30.846 11.7863 30.9636 10.3888C31.1075 8.67077 30.7718 6.93372 31.1482 5.2137C31.2651 4.67948 30.735 4.18524 30.2088 4.17016C29.5755 4.15181 29.0677 4.41335 28.5802 4.76797C28.4383 4.87088 28.3844 5.00132 28.3358 5.1652C28.1992 5.62339 28.3122 6.07437 28.3214 6.52993C28.3398 7.49482 28.2944 8.46232 28.3529 9.42393C28.4298 10.6884 28.2741 13.4768 28.3076 14.7406C28.3509 16.3774 28.1604 20.1674 28.1111 20.4152C28.01 20.9304 28.0934 21.1723 28.5395 21.4404C29.0059 21.7203 29.519 21.8619 30.0537 21.7668C30.5786 21.6731 35.3409 21.736 35.4519 21.5689C35.5859 21.3677 35.7186 21.1631 35.8723 20.977C36.3762 20.3687 35.7501 19.2838 35.1615 19.1986Z" fill="black"/>
<path d="M25.7323 19.3632C25.4288 19.3704 23.8981 19.373 22.7517 19.5415C22.5349 19.573 22.259 19.4838 22.0744 19.3566C21.9358 19.2623 22.0954 18.7228 22.098 18.6553C22.1342 17.4898 22.1736 16.3237 22.2071 15.1582C22.2406 14.0006 22.4436 11.3223 22.435 10.1621C22.4337 9.97327 22.4896 8.63345 22.5073 8.26965C22.5553 7.3028 22.4896 6.33398 22.5835 5.36647C22.6282 4.90173 22.2636 4.49598 21.8477 4.51695C21.4141 4.53924 20.9858 4.47107 20.5568 4.49926C20.097 4.52941 19.7836 4.81193 19.8276 5.19867C19.8611 5.49626 19.8322 5.78795 19.8421 6.08227C19.9084 8.00614 19.9524 9.18734 20.0227 11.1112C20.0464 11.7575 20.0188 14.6784 20.0194 15.3234C20.0207 16.2771 20.0122 17.2309 20.0076 18.184C20.003 19.0525 19.8118 19.9197 19.9537 20.7948C19.9991 21.0282 19.8907 21.2851 20.0437 21.5034C20.4327 22.0592 21.1316 22.3168 21.7525 22.0297C22.2012 21.8226 24.5892 21.8573 24.7718 21.8744C25.6692 21.9557 25.2336 22.0481 26.1369 21.8783C26.4707 21.8154 26.6257 21.6535 26.6572 21.3644C26.698 20.9908 26.7078 20.6126 26.7026 20.2363C26.6973 19.6837 26.2841 19.3501 25.7323 19.3632Z" fill="black"/>
<path d="M41.819 4.16951C41.3256 3.90994 40.7751 3.78867 40.4571 4.31175C39.6675 5.61159 38.8949 7.5761 38.8949 7.5761C38.8949 7.5761 38.4712 9.42 38.1 9.44754C37.7978 9.46982 37.6224 8.55934 37.6224 8.55934C37.6224 8.55934 36.88 7.01959 36.6219 6.62433C36.2743 6.09273 35.9242 5.56178 35.6095 5.01051C35.3684 4.58772 35.0806 4.26652 34.5794 4.23309C34.2174 4.26325 33.793 4.65326 33.6065 4.92792C33.4764 5.11932 33.4067 5.36054 33.6058 5.59258C34.3225 6.42637 34.7417 7.44697 35.3231 8.36597C35.754 9.04703 36.6935 10.7421 37.1461 11.4075C37.2735 12.4857 37.623 20.0862 37.4352 20.937C37.3925 21.1284 37.5199 21.7577 37.8569 21.8894C38.5388 22.1562 39.6819 21.894 39.8153 21.19C39.8376 21.0707 39.7956 20.9501 39.8153 20.8302C39.9697 19.8902 39.8166 17.8169 39.8153 17.7231C39.8048 16.7589 39.5262 10.8142 39.5262 10.8142C39.5262 10.8142 40.1227 9.62255 40.4519 9.00246C40.8986 8.15949 42.0542 5.83774 42.405 5.36644C42.6953 4.97642 42.2841 4.41401 41.819 4.16951Z" fill="black"/>
<path d="M69.5994 18.924C69.0088 19.0276 68.4195 19.0086 67.8263 19.0007C67.459 18.9961 67.3552 18.8106 67.3933 18.4848C67.5076 17.5082 67.5017 14.8161 67.5214 13.8348C67.5214 13.6591 67.5208 13.4834 67.5214 13.3084C67.5227 12.6313 68.1955 12.5854 68.2093 12.5834C68.6908 12.5113 69.173 12.5022 69.6591 12.5448C70.2405 12.5959 70.6833 12.1941 70.7615 11.6205C70.8068 11.2902 70.5756 11.0981 70.4587 10.8503C70.1591 10.2171 70.2931 10.2158 69.6046 10.2787C69.1211 10.3227 68.3617 10.282 67.8762 10.2964C67.7428 10.3004 67.5517 10.3233 67.5615 10.0867C67.6101 8.9317 67.6134 7.77279 67.7974 6.62699C67.823 6.46967 67.8663 6.26712 68.0851 6.30645C68.6639 6.41068 70.5178 6.61453 70.6978 6.27696C70.9363 5.83057 71.4796 5.40122 70.9973 4.83094C70.6722 4.44551 68.1212 4.44879 67.8578 4.39373C66.72 4.15447 66.0242 4.72344 66.0321 5.87252C66.0341 6.12881 66.0269 6.38708 65.9953 6.64075C65.7891 8.32996 65.8311 10.029 65.8121 11.7241C65.8029 12.5684 65.8245 13.4153 65.7799 14.2576C65.7102 15.5725 65.6104 18.5956 65.6084 19.9132C65.6084 20.0377 65.7273 20.8033 65.8015 20.9062C66.2548 21.3172 68.0969 21.2628 68.0969 21.2628C68.0969 21.2628 69.5783 20.9665 70.3489 21.095C70.8187 21.173 71.3882 20.6342 71.3436 20.2442C71.2601 19.5245 70.3246 18.7969 69.5994 18.924Z" fill="black"/>
<path d="M63.4465 18.7772C63.1443 18.6422 62.8414 18.5707 62.5077 18.5766C61.9591 18.5865 61.4749 18.3335 60.9737 18.1558C60.7661 18.0824 60.7208 17.8975 60.7043 17.6976C60.6768 17.3587 60.7313 15.3149 60.7556 14.9793C60.8055 14.2845 60.7306 13.5929 60.6965 12.9001C60.6695 12.3455 60.8318 12.1941 61.3797 12.2079C61.582 12.2131 61.785 12.2085 61.9874 12.2085V12.2105C62.0958 12.2105 62.2048 12.2013 62.3119 12.2118C63.1837 12.2996 63.3453 11.9345 63.656 11.3177C63.9076 10.8176 63.57 10.2775 62.9925 10.1837C62.4078 10.0887 61.8343 10.2263 61.2575 10.2755C61.0013 10.2971 60.8843 10.2499 60.8975 9.9556C60.9441 8.87142 60.9264 7.79248 61.1025 6.70633C61.1898 6.1662 61.3659 6.17341 61.7364 6.20488C61.8441 6.21405 61.9519 6.22651 62.0596 6.23503C62.5326 6.27174 63.0063 6.29402 63.4373 6.04953C63.7224 5.88762 63.6074 4.751 63.6074 4.751C63.6074 4.751 60.7536 4.52354 60.364 4.56746C59.6926 4.6435 59.041 4.79295 59.0127 5.43926C58.9759 6.27174 59.0298 7.08848 59.0127 7.92882C58.9891 9.08446 59.1861 10.2473 59.0127 11.3957C58.9023 12.124 59.0416 12.8496 59.0127 13.5752C58.9536 15.0527 58.8609 18.2397 58.8353 19.7179C58.8274 20.1728 59.2072 20.9233 59.8529 20.9548C60.7227 20.998 61.5919 21.0596 62.4617 21.0918C64.085 21.2648 63.7657 19.8765 63.7657 19.8765C63.7657 19.8765 63.9398 18.9975 63.4465 18.7772Z" fill="black"/>
<path d="M17.3417 15.4826C17.4251 15.2041 17.3469 14.9287 17.3417 14.6449C17.3266 13.8498 17.4672 10.7664 17.3417 9.98699C17.1827 9.00244 17.4087 8.02051 17.3417 7.02548C17.3003 6.40735 17.3982 5.78856 17.3417 5.1724C17.3226 4.96002 16.96 4.76665 16.7833 4.63948C16.1585 4.19047 14.3289 4.80205 14.3519 5.16191C14.3808 5.6201 14.4577 6.07042 14.5096 6.52533C14.6718 7.93989 14.4215 9.36624 14.6502 10.7841C14.8788 12.1993 14.6915 15.9257 14.7809 17.3593C14.8591 18.6152 14.9379 19.883 14.8525 21.1487C14.8157 21.6928 15.179 22.0271 15.7354 22.0166C16.0179 22.0113 16.3011 21.9877 16.5803 21.9451C16.9955 21.8822 17.3535 21.4417 17.3417 21.0209C17.3121 19.9839 17.4777 18.9423 17.3417 17.9093C17.2352 17.103 17.5355 16.2922 17.3417 15.4826Z" fill="black"/>
<path d="M85.1356 19.6805C85.0607 18.5124 85.2723 17.3364 85.1356 16.1631C85.1941 15.7593 85.1396 15.3595 85.1356 14.9485C85.1244 13.7955 85.2243 9.32371 85.1356 8.1943C85.0239 6.76598 85.1829 5.34225 85.1356 3.90017C85.112 3.18765 85.1501 2.47513 85.1474 1.76392C85.1691 1.63216 85.1639 1.48468 85.1395 1.33326C85.1382 1.29327 85.1376 1.25329 85.1363 1.2133C85.129 1.04615 85.0502 0.888179 84.9595 0.748559C84.8176 0.437855 84.6271 0.2045 84.4793 0.21171C84.4452 0.213677 84.4116 0.216299 84.3781 0.218265C84.2783 0.2045 84.1706 0.213677 84.0602 0.241208C83.7435 0.268738 83.4295 0.305446 83.1129 0.333632C81.6952 0.458176 13.4749 0.26415 12.0546 0.441133C10.6356 0.61746 6.90086 0.472596 5.46477 0.541423C4.20605 0.602384 2.93551 0.662689 1.66694 0.59714C1.63213 0.595173 1.59797 0.595173 1.56512 0.595829C1.02511 0.512581 0.350419 0.85737 0.361587 1.22903C0.381952 1.88125 0.436479 2.93266 0.473268 3.57963C0.587578 5.5933 0.411515 7.62533 0.572468 9.64359C0.73342 11.6592 0.601373 16.9648 0.664441 19.006C0.719624 20.7942 0.774808 22.5987 0.715026 24.4013C0.689405 25.1768 0.944958 25.6527 1.33781 25.6369C1.40088 25.6343 1.4646 25.6284 1.52833 25.6206C1.6157 25.6409 1.70636 25.6514 1.79636 25.6494C2.83566 25.6284 3.87889 25.7477 4.9149 25.6494C5.72229 25.5734 6.53494 25.7897 7.34627 25.6494C7.62547 25.7097 7.90139 25.6533 8.18585 25.6494C8.98273 25.6383 12.0737 25.7405 12.8541 25.6494C13.8409 25.5347 81.6157 25.6979 82.6129 25.6494C83.2324 25.6192 83.8526 25.69 84.4701 25.6494C84.683 25.6356 84.8768 25.3741 85.0036 25.2463C85.1783 25.0713 85.1921 24.7658 85.1238 24.4577C85.133 24.3699 85.1376 24.2807 85.1363 24.1922C85.1146 22.6885 85.2315 21.1789 85.1356 19.6805ZM83.3999 23.58C83.3047 23.5892 83.2088 23.5977 83.1129 23.6056C81.6952 23.7229 13.4749 23.542 12.0546 23.7065C10.6363 23.8717 6.90151 23.7367 5.46477 23.8009C4.4708 23.8455 3.46961 23.8894 2.46777 23.8756C2.46645 22.5122 2.55711 21.1449 2.46908 19.7873C2.39419 18.6402 2.60573 17.4859 2.46908 16.3329C2.52821 15.9363 2.47302 15.5437 2.46908 15.1405C2.45857 14.0085 2.55777 9.61737 2.46908 8.50762C2.3574 7.10487 2.51638 5.70736 2.46908 4.29084C2.44937 3.7009 2.47368 3.11095 2.47959 2.52167C3.29224 2.54133 4.10554 2.60032 4.91359 2.51839C5.72098 2.43645 6.53362 2.6685 7.34496 2.51839C7.62416 2.58263 7.90008 2.52232 8.18454 2.51839C8.98142 2.50659 12.0724 2.6154 12.8528 2.51839C13.8396 2.39581 81.6144 2.57017 82.6116 2.51839C82.7739 2.50987 82.9368 2.50921 83.0991 2.51118C83.1135 2.73208 83.128 2.95232 83.1398 3.17322C83.2541 5.22426 83.0774 7.29299 83.239 9.34862C83.4 11.401 83.2679 16.8042 83.331 18.8828C83.3776 20.4415 83.4243 22.0108 83.3999 23.58Z" fill="black"/>
</svg>
