<svg width="65" height="44" viewBox="0 0 65 44" fill="none" xmlns="http://www.w3.org/2000/svg">
<path d="M57.8976 25.4118C58.2117 25.6075 58.557 25.7045 58.9226 25.7012C59.9296 25.6946 60.9557 24.8982 61.2615 23.8908C61.5082 23.0841 61.2308 22.3397 60.5013 21.8481C60.1916 21.6382 59.8473 21.533 59.485 21.533C58.4891 21.5319 57.4405 22.3896 57.1461 23.4469C56.9181 24.2652 57.1933 24.9821 57.8976 25.4118ZM59.075 22.6872C59.2186 22.6149 59.3908 22.6697 59.4648 22.8106C59.5377 22.952 59.4834 23.1257 59.3431 23.1975C58.6743 23.5439 58.5751 23.6447 58.5581 24.4137C58.5559 24.5705 58.4277 24.696 58.2736 24.6971C58.2704 24.6971 58.2671 24.6971 58.2649 24.6971C58.1054 24.6943 57.9793 24.5628 57.9826 24.4033C58.0051 23.3937 58.2484 23.1158 59.075 22.6872Z" fill="black"/>
<path d="M50.5938 8.81122C50.6612 8.74819 50.7286 8.69174 50.795 8.63529C50.9934 8.46593 51.2 8.29164 51.3683 8.02417C51.4018 7.97265 51.4379 7.91729 51.4747 7.86139C51.6298 7.62626 51.8068 7.35879 51.8786 7.07597C51.9817 6.67861 51.7416 6.23027 51.3442 6.079C51.2477 6.04173 51.1485 6.02254 51.0499 6.02254C50.5993 6.01926 50.2775 6.37223 50.0424 6.62928L49.9782 6.69998C49.5567 7.15599 49.4137 7.66298 49.3243 8.1431C49.2832 8.36179 49.2679 8.57883 49.2547 8.7893C49.2503 8.85233 49.2459 8.91481 49.2416 8.97894C49.2339 9.07979 49.2196 9.15049 49.2109 9.18338C49.1314 9.27875 49.1253 9.41522 49.2043 9.51826C49.2596 9.59335 49.3506 9.63281 49.4433 9.63172C49.5008 9.63117 49.5584 9.61527 49.6094 9.5802C50.0057 9.31108 50.3192 9.06773 50.5938 8.81122Z" fill="black"/>
<path d="M35.377 28.9607C35.6982 29.1711 36.0545 29.2813 36.4349 29.2884C37.4807 29.3076 38.5688 28.5058 38.9064 27.4627C39.1723 26.6258 38.8944 25.8492 38.1472 25.3318C37.8288 25.112 37.4785 24.998 37.1047 24.9919C36.0841 24.9771 34.9894 25.8393 34.66 26.9163C34.4029 27.7499 34.666 28.4953 35.377 28.9607ZM35.8473 26.565C35.918 26.4712 36.2924 25.9982 36.6952 25.9665C36.8421 25.9549 36.9841 26.0059 37.0893 26.1084C37.2088 26.2235 37.211 26.4115 37.0959 26.5293C36.994 26.6351 36.8323 26.6477 36.7139 26.5672C36.6273 26.6022 36.4469 26.7568 36.322 26.9223C36.2167 27.0615 36.2255 27.1043 36.2567 27.2468C36.2836 27.3778 36.3209 27.5565 36.2589 27.7976C36.2255 27.9352 36.1016 28.0251 35.9657 28.0229C35.9437 28.0218 35.9224 28.0185 35.8993 28.0136C35.7398 27.973 35.6428 27.8113 35.6834 27.6529C35.7108 27.5439 35.6954 27.4699 35.6735 27.3674C35.6346 27.1783 35.5814 26.9179 35.8473 26.565Z" fill="black"/>
<path d="M24.6521 20.7437C24.6493 20.7464 24.6472 20.7497 24.645 20.753C24.6444 20.7525 24.6439 20.7519 24.6433 20.7514C24.6274 20.7634 24.6154 20.7771 24.5984 20.7892C24.4213 20.9109 24.2558 20.7377 24.2651 20.5672C24.2492 20.5058 24.2596 20.4395 24.3101 20.3792C24.3161 20.3683 24.3172 20.3578 24.3254 20.3474C24.3643 20.2959 24.4032 20.2444 24.4421 20.1929C24.446 20.1671 24.4515 20.1408 24.4657 20.1139C25.3778 18.4077 25.6546 16.5174 25.3044 14.6791C24.7047 13.3209 23.2631 12.3963 21.5738 12.3919C21.3479 12.3914 21.121 12.4083 20.8974 12.4429C19.2727 12.6901 18.0958 13.8361 17.1903 15.1252C16.6537 15.9002 15.4823 19.1537 14.7242 19.2743C15.2735 17.191 16.0611 15.5138 16.9623 13.5736C18.069 11.1921 19.436 8.75039 19.5577 6.04941C19.59 5.4339 19.55 4.98447 19.4152 4.44734C19.3423 4.16014 19.0852 3.62028 18.6703 3.31389C18.3946 3.10672 17.9385 2.85843 17.3443 2.85624C16.6137 2.85295 15.5201 3.23004 14.4414 5.04695C12.8096 7.84276 11.9331 11.8405 11.2989 14.9948C10.6346 14.3458 9.81677 14.0384 8.897 14.0406C8.618 14.0417 8.31598 14.0641 7.99696 14.1085C5.8817 14.4045 2.27058 15.8016 1.86003 21.8815C1.82549 22.7524 1.92964 23.7269 2.18014 24.8598L2.21248 24.9996C2.21906 25.0215 2.22563 25.0435 2.2355 25.0637L2.40049 25.4134C1.62707 25.9906 0.137782 27.3158 0.726481 28.4268C1.7959 30.4427 3.31314 27.4227 4.46203 27.5488C4.61825 27.5658 4.77173 27.6091 4.92246 27.6661C5.51774 27.8913 6.07026 28.3435 6.66335 28.338C7.86102 28.3265 9.06747 27.4381 9.87652 26.4394C10.2186 27.2747 10.7996 27.4096 11.157 27.4041C11.9496 27.3931 12.7542 26.7305 13.167 26.3375C13.4778 26.0432 13.6981 25.7368 13.9108 25.4403C14.0933 25.1854 14.2682 24.9448 14.4995 24.7135C14.6004 24.7672 14.7719 24.8927 14.9155 24.9974C15.3447 25.3093 15.9329 25.7357 16.6498 25.9231C17.0007 26.0147 17.5428 26.0651 18.0975 26.0574C18.633 26.0503 19.4103 25.9889 20.079 25.7291C20.7066 25.4852 21.1369 25.0648 21.4225 24.7869C21.4921 24.7168 21.554 24.6576 21.6083 24.6116C21.6406 24.5847 21.6658 24.5502 21.6856 24.5113C21.7387 24.5332 21.8193 24.5557 21.9416 24.5891C21.9991 24.6044 22.0523 24.6187 22.083 24.6275C22.1137 24.6423 22.1471 24.6505 22.1805 24.6543C22.4869 24.6839 22.7873 24.7004 23.0691 24.6982C24.6872 24.6905 25.9923 24.1391 27.2826 22.9163C27.8428 23.7012 29.1633 24.2559 30.6043 24.2613C30.9606 24.2635 31.3092 24.2295 31.6381 24.1594C32.912 23.8925 33.9649 22.9996 34.4736 22.5612C34.5322 22.5107 34.5931 22.4576 34.643 22.4165C34.695 22.4696 34.769 22.5743 34.8156 22.6445C34.9949 22.9065 35.2415 23.266 35.7042 23.2896C36.5242 23.3312 37.2981 22.4926 38.1094 21.5932C38.407 21.2638 38.7123 20.924 39.0226 20.6193C39.4529 21.63 40.3419 22.1369 41.5594 22.046C42.8886 21.9478 44.4003 21.1197 45.3048 20.0301C45.6002 21.2315 46.3753 21.3822 46.8368 21.3641C48.5338 21.2956 51.0936 18.7514 51.9855 16.7881C52.5078 15.6366 52.2984 15.0019 52.031 14.6681C51.8418 14.4352 51.6423 14.3212 51.4187 14.3179C51.0136 14.3124 50.6847 14.6736 50.1925 15.2327C49.8702 15.5977 49.4701 16.0597 48.946 16.547C48.2664 17.1784 47.9331 17.2589 47.8207 17.2622C47.7511 17.265 47.7067 17.2491 47.6601 17.1521C47.6327 17.0934 47.5817 16.7717 47.7385 16.4165C47.9057 16.0378 47.9331 15.8218 47.961 15.5949C47.9884 15.3724 48.0197 15.123 48.2154 14.6171C48.6248 13.556 48.8172 12.2801 48.667 11.6344C48.0838 9.16914 45.6622 8.63584 43.4861 9.72325C40.7114 11.1094 40.2893 14.0115 38.822 16.5272C38.2223 17.5418 37.837 17.7626 37.6243 17.7796C37.644 17.738 37.6643 17.6963 37.6884 17.6536C37.7125 17.6053 37.7273 17.5713 37.7438 17.5385C37.7558 17.5133 37.7668 17.4886 37.7805 17.4612C37.8057 17.413 37.8227 17.3718 37.8359 17.3176C37.8392 17.3099 37.8424 17.2995 37.8479 17.2885C37.8523 17.2748 37.8567 17.2617 37.86 17.2485C37.8885 17.2178 37.9088 17.1817 37.923 17.1433C38.1576 16.4839 38.5484 15.5292 38.9924 14.4418C40.2455 11.31 41.9485 7.12476 42.3459 4.26757C42.5783 2.72031 42.5981 1.15332 41.1104 0.216639C40.9147 0.092223 40.7086 0.0297408 40.4993 0.0308369C39.2188 0.0423468 38.3133 2.46435 37.883 3.61918C37.8463 3.72386 37.8123 3.81211 37.7854 3.88281C37.0992 5.67452 36.5954 7.90195 36.1575 9.86685L36.1087 10.1009C35.8982 9.97921 35.6329 9.83945 35.327 9.71284C34.9609 9.56212 34.552 9.48977 34.1063 9.49415C31.8694 9.51936 29.3129 11.5363 28.591 12.2423C27.4553 13.3417 26.9307 14.9433 26.5854 16.0005C26.5508 16.1101 26.5168 16.2143 26.4845 16.3113C26.4171 16.5163 26.3519 16.8473 26.2718 17.2666C26.1244 18.018 25.9243 19.0468 25.6201 19.7023C25.3137 20.3606 24.9327 20.6176 24.7612 20.6697C24.7606 20.6642 24.7612 20.6565 24.7601 20.6505C24.7557 20.6527 24.7524 20.656 24.748 20.6576C24.7184 20.6889 24.6855 20.7168 24.6521 20.7437ZM17.0686 7.85427C17.124 7.75506 17.1728 7.66134 17.2024 7.572L17.2292 7.48431C17.2616 7.38072 17.2945 7.27987 17.3334 7.17793C17.2029 6.99706 17.2457 6.82002 17.2912 6.71095C17.278 6.70383 17.2681 6.69561 17.2577 6.68574C17.1958 6.63312 17.1591 6.55475 17.1591 6.47144C17.1536 6.30646 17.2232 6.18205 17.3043 6.08887C17.3032 6.07736 17.3021 6.06476 17.3032 6.05325C17.3021 5.97103 17.3273 5.88498 17.3674 5.80003C17.3087 5.74851 17.2709 5.67342 17.2676 5.5923C17.2643 5.50625 17.295 5.42294 17.3564 5.36101C17.3641 5.35224 17.3717 5.34292 17.3794 5.3347C17.3575 5.31881 17.3405 5.29853 17.3219 5.27496C17.261 5.19 17.2511 5.076 17.2928 4.9768C17.3202 4.9187 17.3482 4.85841 17.3794 4.79867C17.3717 4.78113 17.3674 4.76414 17.363 4.7455C17.3454 4.66713 17.3443 4.59478 17.3542 4.52791C17.3367 4.51476 17.3241 4.49886 17.3087 4.48132C17.3087 4.48023 17.3076 4.47913 17.3054 4.47694C17.301 4.4742 17.2945 4.47091 17.2901 4.46762C17.1574 4.37938 17.124 4.19358 17.2128 4.05272C17.3016 3.91515 17.4397 3.84061 17.5872 3.84883C17.6891 3.7847 17.8174 3.78909 17.9117 3.85705C17.9922 3.8713 18.0624 3.92118 18.104 3.99407C18.1484 4.07135 18.155 4.16727 18.1227 4.25332C18.1172 4.26702 18.1117 4.28072 18.1051 4.29333C18.115 4.3021 18.1249 4.31197 18.1315 4.32128C18.1989 4.40733 18.212 4.52462 18.1693 4.62602C18.1868 4.64246 18.2016 4.66 18.2159 4.68028C18.3003 4.80689 18.2734 4.98228 18.155 5.08313C18.1846 5.17466 18.1693 5.27715 18.1095 5.35936C18.103 5.37087 18.0942 5.38293 18.0843 5.39499C18.1112 5.42513 18.1309 5.4624 18.143 5.50461C18.1726 5.606 18.1463 5.71672 18.0745 5.7951C18.0492 5.82305 18.0268 5.85045 18.0048 5.8784C18.007 5.88115 18.0092 5.88443 18.0103 5.88717C18.0788 5.99405 18.069 6.13601 17.9895 6.23795C17.9604 6.27687 17.9265 6.31085 17.8941 6.34099C17.9007 6.35415 17.9062 6.36895 17.9106 6.38429C17.9747 6.59531 17.9149 6.75864 17.864 6.86277C17.9692 6.94608 18.0037 7.09352 17.9456 7.22068C17.8826 7.36154 17.8382 7.5013 17.7861 7.66189L17.7565 7.75068C17.711 7.89538 17.6436 8.0187 17.5784 8.13873C17.5 8.28397 17.4331 8.40839 17.4222 8.53226C17.4112 8.69011 17.2797 8.81068 17.1278 8.81068C17.119 8.81068 17.1136 8.81069 17.1048 8.81014C16.9442 8.79808 16.8258 8.65558 16.8384 8.49005C16.8609 8.23684 16.9711 8.03404 17.0686 7.85427ZM5.40373 17.5653C5.30945 17.6399 5.20366 17.6881 5.09622 17.7078C5.0743 17.7522 5.04744 17.7911 5.014 17.8235C4.98386 18.0328 4.86875 18.1973 4.6928 18.2702C4.67745 18.2751 4.66539 18.2795 4.65059 18.2828C4.65059 18.2915 4.6484 18.3009 4.64511 18.3096C4.65388 18.3469 4.66484 18.3907 4.66813 18.4412C4.6769 18.5294 4.6484 18.6198 4.59084 18.6862C4.53438 18.7514 4.456 18.7859 4.37597 18.7832C4.3683 18.7914 4.35843 18.7969 4.34857 18.8046C4.35843 18.9158 4.30526 19.0189 4.21482 19.0802C4.21044 19.0874 4.20715 19.0928 4.20276 19.1005C4.20386 19.1504 4.19399 19.1981 4.17371 19.2447C4.16056 19.2737 4.14521 19.3 4.12712 19.3247C4.11177 19.402 4.06956 19.471 4.00982 19.516C4.00872 19.5165 4.00872 19.5176 4.00872 19.5176C4.0142 19.5412 4.01859 19.5664 4.01968 19.5894C4.06628 19.653 4.0882 19.7379 4.07833 19.824C4.06847 19.8848 4.04271 19.9424 4.00653 19.9873C4.00543 19.9879 4.00543 19.9895 4.00434 19.9901C3.99557 20.0345 3.97638 20.0761 3.95007 20.1106C3.95117 20.1507 3.94349 20.1901 3.92924 20.2296C3.95775 20.3315 3.9413 20.4461 3.87827 20.5272C3.87827 20.5294 3.87827 20.5305 3.87827 20.5327C3.90458 20.6286 3.88704 20.7366 3.82619 20.816C3.78508 20.9026 3.72753 20.9596 3.65243 20.987C3.62009 21.0002 3.58611 21.0046 3.55377 21.0046C3.46881 21.0046 3.39974 20.9657 3.37234 20.9498C3.29176 20.9037 3.23749 20.8155 3.22927 20.7152C3.2216 20.6269 3.24681 20.5393 3.30327 20.4751L3.30985 20.4642C3.31423 20.4559 3.31971 20.4483 3.3252 20.439C3.32848 20.3847 3.34054 20.3381 3.35918 20.2975C3.35151 20.2329 3.35918 20.1748 3.37453 20.1238C3.37453 20.1211 3.37343 20.12 3.37234 20.1172C3.34493 20.0169 3.36576 19.9117 3.42331 19.8322C3.42331 19.8059 3.4255 19.7785 3.43099 19.7522C3.42879 19.7275 3.4277 19.7029 3.42879 19.6777C3.39207 19.6152 3.37672 19.5379 3.38878 19.4623C3.38988 19.4584 3.39097 19.454 3.39097 19.4513C3.38659 19.4255 3.38439 19.3987 3.38549 19.3724C3.39536 19.2474 3.46936 19.1433 3.57021 19.1016C3.55158 18.9734 3.62557 18.8429 3.6612 18.7793C3.68697 18.7328 3.72314 18.696 3.76425 18.6703C3.76754 18.667 3.76864 18.6642 3.77083 18.6615C3.7511 18.5793 3.76316 18.4878 3.80646 18.4121C3.83167 18.3716 3.86292 18.3376 3.89964 18.3135C3.9128 18.2493 3.94185 18.189 3.99173 18.1436C4.01914 18.1172 4.04709 18.0964 4.07833 18.0844C4.07833 18.0438 4.07833 18.0038 4.08053 17.9671C4.07833 17.9216 4.08272 17.8766 4.09368 17.8311C4.12164 17.7122 4.20769 17.6245 4.31074 17.6004C4.33705 17.5801 4.36391 17.5631 4.39461 17.5527C4.42311 17.5434 4.45326 17.5379 4.48121 17.5379C4.49656 17.4886 4.52342 17.4425 4.56069 17.4058C4.57714 17.3883 4.59742 17.3724 4.61935 17.3592C4.6325 17.2913 4.66594 17.2261 4.71472 17.18C4.78543 17.1153 4.87861 17.0819 4.96577 17.1077C5.01565 17.1225 5.05457 17.1137 5.09842 17.0781C5.22558 16.98 5.39386 17.0096 5.47937 17.1444C5.56324 17.2754 5.5309 17.4656 5.40373 17.5653ZM7.61655 25.1531C7.46582 25.1553 7.30795 25.1339 7.14625 25.0922C6.19524 24.8434 6.13659 22.9317 6.40134 21.3691L6.44683 21.1115C6.74447 19.5132 6.87273 18.8528 8.00738 18.0997C8.50782 17.7709 8.99676 17.5861 9.38868 17.584C9.66658 17.5823 9.88584 17.6689 10.0404 17.8405C10.2564 18.08 10.3556 18.4971 10.326 19.0468C10.2449 21.1493 9.63205 25.1317 7.61655 25.1531ZM21.9224 18.7985C21.7661 19.3883 21.5359 20.0054 21.3101 20.4488C21.2745 20.519 21.1659 20.5754 21.0519 20.6352C20.9116 20.707 20.7543 20.7897 20.6469 20.9388C20.5449 21.0797 20.4808 21.2704 20.4177 21.4562C20.381 21.5664 20.3191 21.7494 20.284 21.7894C19.8811 22.155 19.5259 22.2329 19.2557 21.9731C18.9981 21.7248 18.844 21.2277 18.8353 20.6105C18.8243 19.9418 19.0655 19.0567 19.4974 18.1836C20.0275 17.1126 20.7214 16.3836 21.3052 16.2779C21.3792 16.2647 21.4499 16.257 21.5135 16.2565C21.7689 16.2543 21.8796 16.3584 21.9416 16.4363C22.2211 16.7914 22.2134 17.6952 21.9224 18.7985ZM23.6978 14.7821C23.678 14.9444 23.5317 15.0578 23.3656 15.0337C23.2242 15.014 23.1168 14.8994 23.1042 14.7635C23.0488 14.7273 22.9759 14.6687 22.9216 14.5689C22.8893 14.5048 22.875 14.4379 22.8641 14.3722C22.7824 14.3754 22.664 14.37 22.5598 14.2943C22.4837 14.3469 22.3992 14.4045 22.3066 14.4472C22.22 14.4878 22.1197 14.484 22.0342 14.4379C21.9487 14.3919 21.8911 14.3091 21.878 14.2148C21.8769 14.2077 21.8769 14.2006 21.8747 14.194C21.8215 14.2006 21.7694 14.2001 21.7141 14.1863C21.6264 14.262 21.5058 14.3151 21.3479 14.2927C21.2684 14.4067 21.1363 14.5481 20.9039 14.5623C20.8787 14.5634 20.8562 14.5629 20.8354 14.559C20.7236 14.6632 20.6194 14.695 20.5586 14.7142C20.5334 14.7213 20.5274 14.7235 20.523 14.7273C20.5054 14.7383 20.4643 14.7821 20.4375 14.8106C20.3136 14.94 20.1453 15.1186 19.8997 15.0896C19.891 15.088 19.88 15.0874 19.8707 15.0852C19.7879 15.1625 19.6925 15.2277 19.6048 15.2891C19.5287 15.3417 19.4519 15.3954 19.4125 15.4376C19.3527 15.5001 19.2952 15.5851 19.2343 15.6744C19.1356 15.8175 19.0353 15.9665 18.8923 16.0789C18.8391 16.1206 18.7739 16.1414 18.7097 16.1414C18.6209 16.1425 18.5305 16.103 18.4697 16.0285C18.3655 15.8986 18.3869 15.7111 18.5162 15.6097C18.5859 15.5544 18.6604 15.4437 18.7333 15.3379C18.804 15.2332 18.8786 15.1258 18.969 15.0282C19.0496 14.9411 19.1537 14.8698 19.2535 14.7997C19.35 14.7333 19.4947 14.633 19.5215 14.5711C19.5648 14.4686 19.6635 14.399 19.7753 14.3919C19.8449 14.388 19.9047 14.4056 19.9578 14.4396C19.9721 14.4242 19.9853 14.4111 19.9979 14.3979C20.0554 14.3382 20.1174 14.2735 20.1892 14.2269C20.2632 14.1792 20.3284 14.1589 20.3717 14.1458C20.4062 14.1343 20.4062 14.1343 20.4194 14.1222C20.489 14.057 20.4967 14.0433 20.5071 14.0093C20.5449 13.8816 20.6688 13.7939 20.7981 13.7967C20.8447 13.7978 20.8891 13.8104 20.9297 13.829C20.9916 13.738 21.0837 13.6344 21.2339 13.5884C21.2915 13.5714 21.3512 13.5714 21.4066 13.5867C21.4389 13.5275 21.4784 13.4656 21.5315 13.4108C21.6247 13.3143 21.7716 13.2935 21.8911 13.3587C21.9377 13.385 21.9766 13.4207 22.0029 13.464C22.0249 13.4508 22.0441 13.4382 22.0627 13.4283C22.1756 13.3626 22.3209 13.379 22.4179 13.47C22.4634 13.5122 22.4941 13.5648 22.5067 13.6218C22.5357 13.607 22.5675 13.5961 22.5988 13.5862C22.6952 13.5549 22.8027 13.5758 22.8822 13.6421C22.9244 13.6777 22.9583 13.7232 22.9764 13.7758C23.0784 13.7808 23.2023 13.8093 23.313 13.9167C23.4106 14.011 23.4303 14.137 23.4456 14.2488C23.4489 14.2614 23.4511 14.274 23.4511 14.2866C23.5339 14.3354 23.7372 14.4615 23.6978 14.7821ZM47.1843 19.2721C47.2123 19.2288 47.2496 19.1953 47.2918 19.1712C47.3214 19.1246 47.3625 19.0852 47.4113 19.0589C47.4957 19.0156 47.5927 19.0161 47.6738 19.0611C47.7325 19.0956 47.7791 19.1509 47.8152 19.2156C47.8196 19.2184 47.8262 19.2216 47.8295 19.2249C47.8361 19.2255 47.8448 19.2271 47.8525 19.2277C47.8827 19.2085 47.921 19.1871 47.9665 19.1712C47.9764 19.1685 47.9841 19.1652 47.9928 19.163C48.0148 19.1361 48.0383 19.1082 48.0734 19.0846C48.1145 19.0534 48.1562 19.0364 48.1896 19.026C48.2072 19.0013 48.2296 18.975 48.2592 18.9498C48.3321 18.8868 48.4023 18.861 48.4505 18.844C48.4604 18.8413 48.4703 18.8374 48.4796 18.8331C48.5207 18.8122 48.5662 18.7744 48.621 18.7311C48.6818 18.6796 48.7536 18.6215 48.8402 18.5733C48.9839 18.4943 49.1554 18.5546 49.2267 18.7053C49.2974 18.8577 49.2387 19.0441 49.0951 19.1213C49.0573 19.1427 49.0146 19.1773 48.9658 19.2167C48.894 19.2765 48.8117 19.3444 48.7038 19.3965C48.6758 19.4102 48.6484 19.4195 48.6237 19.4299C48.6062 19.4546 48.5859 19.4836 48.5552 19.5121C48.5042 19.5598 48.4544 19.5867 48.4105 19.6031C48.3831 19.6459 48.3442 19.6936 48.2866 19.7286C48.2548 19.7484 48.2225 19.7626 48.1902 19.773C48.1902 19.8415 48.1693 19.9122 48.1293 19.9692C48.0597 20.0679 47.9567 20.1205 47.8514 20.1222C47.7939 20.1452 47.7308 20.1523 47.6645 20.1441C47.6459 20.1408 47.6256 20.1375 47.6026 20.1298C47.585 20.1342 47.568 20.1375 47.5505 20.1386C47.5384 20.1391 47.5264 20.1402 47.516 20.1402C47.4951 20.2449 47.4283 20.3376 47.3356 20.3803C47.2523 20.4187 47.1673 20.4285 47.0868 20.4066C47.0791 20.4121 47.067 20.4165 47.0572 20.4203C47.0276 20.4335 46.9941 20.4411 46.964 20.4422C46.9174 20.4439 46.8719 20.4351 46.8313 20.4148C46.7053 20.4022 46.6055 20.3047 46.5858 20.1677C46.5781 20.1035 46.5573 20.0114 46.5359 19.9446C46.5162 19.8815 46.5162 19.813 46.5359 19.7484C46.5633 19.6623 46.6143 19.5922 46.6817 19.5478C46.6937 19.4442 46.7524 19.3494 46.8467 19.2967C46.9399 19.2458 47.0446 19.2512 47.1257 19.3033C47.1449 19.2913 47.1635 19.2808 47.1843 19.2721ZM43.4669 10.6945C43.5376 10.6534 43.6028 10.6073 43.6669 10.5618C43.7886 10.4763 43.9268 10.3793 44.0983 10.3114C44.1904 10.2746 44.2841 10.2642 44.3598 10.2549C44.3861 10.2527 44.4086 10.2511 44.4283 10.2472C44.4705 10.2308 44.5489 10.1743 44.6251 10.1195C44.7687 10.0165 44.9315 9.90084 45.1321 9.86685C45.2209 9.85315 45.3081 9.87727 45.37 9.93262C45.4067 9.96332 45.4308 10.0011 45.4473 10.0422C45.5712 10.0132 45.7005 10.0686 45.7603 10.1732C45.7756 10.1683 45.7904 10.1628 45.8058 10.1579C45.9077 10.1245 46.0184 10.148 46.0946 10.2165C46.1823 10.1875 46.2837 10.2006 46.3583 10.2549C46.3682 10.2626 46.3758 10.2697 46.3835 10.2768C46.4465 10.2922 46.503 10.3267 46.5419 10.3793C46.5753 10.4232 46.594 10.4752 46.5973 10.5284C46.6258 10.5591 46.645 10.5975 46.6581 10.6375C46.6713 10.6331 46.6855 10.6292 46.6981 10.6254C46.8132 10.5909 46.9371 10.6292 47.01 10.7208C47.0374 10.757 47.0555 10.7964 47.0621 10.8386C47.1306 10.9247 47.1416 11.042 47.0873 11.1395C46.9755 11.3467 46.7908 11.4728 46.5912 11.4859C46.5649 11.4996 46.5381 11.5106 46.5112 11.521C46.4816 11.5314 46.4526 11.538 46.4213 11.5391C46.3216 11.544 46.2256 11.4996 46.1703 11.4163C46.1412 11.3741 46.1281 11.3248 46.1248 11.276C46.0881 11.2574 46.0541 11.231 46.0294 11.1982C45.951 11.2546 45.86 11.3018 45.7537 11.3297C45.6649 11.3549 45.5701 11.3352 45.5005 11.282C45.421 11.2711 45.3497 11.2294 45.3048 11.1603C45.2894 11.1362 45.2768 11.1099 45.2691 11.0825C45.2182 11.0748 45.1672 11.0529 45.1266 11.0173C45.0592 10.9608 45.028 10.8792 45.0323 10.7981C44.989 10.7942 44.9479 10.7816 44.9107 10.7591C44.8706 10.7361 44.8389 10.7043 44.8164 10.6682C44.7479 10.7104 44.6782 10.7498 44.6004 10.7767C44.5352 10.8002 44.4689 10.8074 44.4058 10.815C44.3735 10.8183 44.3187 10.8249 44.3017 10.8309C44.1986 10.8726 44.1049 10.9389 43.9964 11.0151C43.9191 11.0683 43.8423 11.1236 43.7508 11.1768C43.6105 11.259 43.4329 11.2184 43.3545 11.0842C43.2761 10.9521 43.3249 10.7767 43.4669 10.6945ZM41.914 16.4648C42.0116 15.0288 42.6277 12.8907 44.3669 12.7328C46.0415 12.5783 45.7394 14.2159 45.1206 15.3045C45.0641 15.4015 44.9622 15.4919 44.8537 15.5889C44.7374 15.693 44.6048 15.812 44.5061 15.9649C44.3987 16.1321 44.3357 16.3135 44.2814 16.4741C44.2348 16.6133 44.1893 16.7459 44.1274 16.8238C43.6472 17.4404 42.9319 17.9726 42.5367 18.006C42.5 18.0087 42.4682 18.0071 42.4446 18.0011C42.3876 17.9863 42.3317 17.9441 42.2774 17.8881C42.2747 17.8849 42.2714 17.8821 42.2686 17.8794C42.0445 17.6404 41.869 17.089 41.914 16.4648ZM39.9637 2.50601C39.978 2.47751 39.9939 2.44901 40.0136 2.42215C39.9429 2.12509 40.1572 1.95299 40.2471 1.87954C40.2668 1.86365 40.2937 1.84173 40.3014 1.83186C40.3677 1.67949 40.5349 1.61427 40.6856 1.6762C40.8238 1.7343 40.8873 1.89653 40.8418 2.04178C40.866 2.06261 40.884 2.08727 40.8994 2.11687C40.9438 2.20182 40.9405 2.30102 40.8994 2.38433C40.9115 2.39639 40.9213 2.40955 40.9317 2.4238C40.9893 2.50985 40.9959 2.61837 40.9537 2.711C40.9992 2.75978 41.0266 2.82226 41.0309 2.89296C41.032 2.90557 41.032 2.91817 41.0309 2.92859C41.0962 2.97079 41.1428 3.03766 41.1581 3.11603C41.1658 3.1533 41.1658 3.19167 41.1581 3.22784C41.1833 3.25032 41.2025 3.27608 41.2168 3.30567C41.2579 3.38405 41.259 3.47777 41.2233 3.56053C41.2069 3.59452 41.1877 3.62685 41.168 3.65371C41.1943 3.68385 41.2124 3.72112 41.2233 3.76168C41.2513 3.86418 41.2201 3.97489 41.1439 4.05217C41.0753 4.11849 40.9992 4.17111 40.9246 4.21824C40.9465 4.25003 40.9624 4.28675 40.9701 4.32676C41.0057 4.50983 40.9471 4.65452 40.7996 4.75701C40.7953 4.76523 40.792 4.77346 40.7876 4.77949C40.7898 4.80031 40.792 4.82443 40.7931 4.85403C40.7942 4.88033 40.7974 4.89787 40.7996 4.91212C40.8106 4.98831 40.8161 5.05353 40.7865 5.19768C40.7667 5.29195 40.7311 5.37197 40.6982 5.44432C40.6807 5.48378 40.6484 5.55996 40.6505 5.58079C40.6873 5.73645 40.5875 5.8943 40.428 5.93431C40.4083 5.93924 40.3869 5.94253 40.3672 5.94308C40.2301 5.94746 40.1062 5.85922 40.0761 5.7233C40.0295 5.51667 40.1062 5.34347 40.1627 5.21631C40.1846 5.16808 40.2027 5.12423 40.2104 5.0919C40.2214 5.03873 40.2203 5.03599 40.217 5.00968C40.2126 4.98009 40.2082 4.94665 40.206 4.89623C40.2027 4.85457 40.1994 4.83484 40.1972 4.82224C40.1753 4.71317 40.2005 4.64301 40.2351 4.5756C40.2131 4.56299 40.1929 4.5471 40.172 4.53175C40.0657 4.4457 40.035 4.29552 40.1002 4.17165C40.1369 4.09876 40.1846 4.03847 40.2394 3.9864C40.206 3.92775 40.1918 3.85815 40.2038 3.78744C40.2082 3.76388 40.2148 3.74195 40.2214 3.72003C40.1583 3.66083 40.1238 3.57478 40.1315 3.48216C40.1347 3.46955 40.1358 3.4564 40.1369 3.44489C40.1358 3.44324 40.1326 3.4416 40.1315 3.44105C40.0564 3.38734 40.0131 3.30074 40.0131 3.20756C40.0131 3.19934 40.0131 3.19277 40.0131 3.18454C39.9889 3.14673 39.9741 3.10398 39.9698 3.05794C39.961 2.97024 39.9741 2.89241 40.0021 2.82445C39.9889 2.8102 39.9769 2.79211 39.9687 2.77348C39.9237 2.69236 39.9237 2.59206 39.9637 2.50601ZM32.4148 20.2378C32.3408 20.2932 32.2131 20.3222 32.0563 20.3222C31.5016 20.3211 30.812 19.9692 30.7057 19.7062C30.0118 18.0482 30.7912 15.7413 32.4488 14.5492C32.9289 14.2039 33.3609 14.0153 33.704 14.0093C34.1003 14.0011 34.3848 14.2357 34.5542 14.7081C34.9971 15.9578 34.3793 18.7525 32.4148 20.2378ZM29.5557 13.3582C29.8358 12.9411 30.191 12.5914 30.5352 12.2521C30.5928 12.1951 30.6427 12.1321 30.6991 12.0652C30.8131 11.9222 30.9447 11.7589 31.1289 11.6525C31.1645 11.6323 31.2051 11.6191 31.2451 11.6147C31.3092 11.5067 31.398 11.3829 31.5537 11.305C31.5959 11.2831 31.6375 11.2733 31.6896 11.2727C31.7241 11.2376 31.7636 11.2042 31.8113 11.1768C31.8469 11.1565 31.8853 11.1439 31.9242 11.1395C32.0015 11.0622 32.1045 11.0003 32.2372 11.0041C32.2602 10.9724 32.2849 10.94 32.3123 10.9099C32.3753 10.8359 32.4707 10.8003 32.5672 10.8085C32.6214 10.8129 32.6735 10.8326 32.7157 10.8633C32.7322 10.8523 32.7497 10.8408 32.7689 10.8309C32.7722 10.8282 32.7766 10.826 32.782 10.8244C32.8089 10.7734 32.8407 10.729 32.8676 10.6939L32.901 10.6462C32.9881 10.5213 33.1542 10.4791 33.2896 10.5487C33.3061 10.5569 33.3231 10.5679 33.3417 10.5777C33.4113 10.5361 33.5034 10.5059 33.6141 10.5125C33.6541 10.5136 33.6936 10.524 33.727 10.5394C33.8109 10.5076 33.9074 10.5158 33.9896 10.5662C34.034 10.592 34.0735 10.6232 34.1091 10.6588C34.1732 10.6501 34.2373 10.655 34.2993 10.6725C34.3881 10.6983 34.4621 10.7504 34.5153 10.8189C34.535 10.8189 34.5553 10.8172 34.5783 10.8172C34.7597 10.8134 35.0053 10.8255 35.2059 11.0387C35.3166 11.1565 35.309 11.3434 35.1873 11.4558C35.0656 11.5676 34.8754 11.5621 34.7636 11.4437C34.7318 11.4103 34.695 11.4059 34.5377 11.4119C34.4582 11.4141 34.3684 11.4174 34.2719 11.4053C34.2045 11.3977 34.1458 11.3675 34.1003 11.3242C34.034 11.3555 33.9573 11.362 33.8822 11.339C33.8334 11.3242 33.789 11.2974 33.7539 11.2612C33.7117 11.2749 33.664 11.2804 33.6169 11.2727C33.5692 11.2656 33.5281 11.2491 33.4919 11.2234C33.4732 11.2354 33.4563 11.2469 33.4365 11.2585C33.391 11.2837 33.3422 11.2941 33.2891 11.2968C33.2606 11.373 33.1992 11.4377 33.1164 11.4717C33.0501 11.498 32.9783 11.498 32.9147 11.4766C32.8917 11.4947 32.8681 11.5128 32.8396 11.5287C32.7678 11.5758 32.6757 11.5879 32.5918 11.5621C32.5354 11.6503 32.4389 11.7035 32.3293 11.6997C32.3052 11.6986 32.2805 11.6947 32.2564 11.6876C32.2498 11.698 32.2432 11.7068 32.2356 11.7161C32.1835 11.789 32.0963 11.8329 32.0064 11.835C31.9746 11.8712 31.9368 11.9063 31.8946 11.9353C31.8436 11.9704 31.785 11.9885 31.7263 11.9885C31.6721 12.0833 31.6046 12.1951 31.4852 12.2763C31.4199 12.319 31.3399 12.336 31.2637 12.3223C31.2336 12.359 31.2018 12.3974 31.1694 12.4374C31.1075 12.5141 31.0434 12.5936 30.9694 12.667C30.6383 12.9921 30.3028 13.3209 30.0551 13.6892C29.9997 13.7736 29.9043 13.8202 29.8062 13.8202C29.7487 13.8202 29.6911 13.8038 29.639 13.7693C29.502 13.6783 29.4642 13.4936 29.5557 13.3582Z" fill="black"/>
<path d="M63.0776 30.4668C62.8332 30.4646 62.5805 30.5501 62.3492 30.714C61.9496 30.9974 61.6141 31.5109 61.3143 31.9675C61.1093 32.2826 60.7985 32.76 60.656 32.7874C60.6247 32.7935 60.5962 32.7967 60.5693 32.7967C60.4033 32.7978 60.2065 32.6882 60.0135 31.8743C59.8151 31.0352 59.9982 29.5477 60.093 28.7529L60.1117 28.5995C60.1193 28.5315 60.1429 28.4175 60.1714 28.2865C60.292 27.7187 60.4734 26.8626 60.0875 26.3808C59.9428 26.1983 59.4923 26.0054 59.0559 26.0087C58.891 26.0103 58.738 26.0393 58.601 26.0963C58.2337 26.2476 57.5935 26.5408 57.4411 26.7727C56.9785 27.477 56.8601 28.4877 56.7395 29.4676C56.6973 29.8113 56.6573 30.1363 56.6014 30.4416C56.4463 31.4194 55.8877 32.7463 55.5353 32.7551C55.5007 32.7562 55.1899 32.7288 54.7958 31.5131C54.5448 30.7529 54.5678 29.7916 54.5853 28.8642C54.6106 27.3246 54.6286 25.739 53.4332 24.7738C53.4288 24.7683 53.4222 24.7645 53.4145 24.7596C52.9897 24.4729 52.4005 24.3266 51.7098 24.3353C50.9507 24.3457 50.1295 24.5529 49.5184 24.8895C48.4824 25.4567 47.9058 26.3693 47.476 27.1881C47.4437 27.2501 47.4338 27.3202 47.4492 27.3849C47.4294 27.4227 47.4113 27.4622 47.396 27.5C46.8627 26.5343 45.9094 25.9423 44.8691 25.9423C44.5967 25.9418 44.327 25.9823 44.0611 26.0624C43.4823 26.2361 42.4063 26.6932 41.6981 27.802C41.0869 28.7562 40.7586 30.1747 40.5426 31.1125C40.4884 31.3399 40.4429 31.5378 40.4012 31.6896C40.3491 31.8787 40.3124 32.1494 40.2697 32.4624C40.171 33.1925 40.0318 34.1933 39.6135 34.7507C39.4096 35.0225 38.901 35.3103 38.4367 35.2999C38.2936 35.2971 38.1676 35.2664 38.0694 35.2149C37.9785 35.13 37.9066 34.6553 37.9258 34.2897C37.9648 33.6622 38.0629 33.0516 38.1473 32.5139C38.3112 31.478 38.4383 30.6608 38.0996 30.1456C37.8052 29.6989 37.2785 29.426 36.6909 29.415C36.1559 29.4035 35.6182 29.6156 35.1797 30.0124C34.5192 30.6066 34.4594 31.4194 34.3925 32.3621C34.3482 32.959 34.3005 33.6337 34.0993 34.3928C33.9113 35.1026 33.6553 35.6413 33.3423 35.9932C32.8463 36.5523 32.6117 36.6043 32.5344 36.6016C32.5179 36.6016 32.49 36.601 32.4494 36.5632C32.4395 36.5106 32.4253 36.3358 32.5124 35.8556C32.5821 35.4791 32.6851 35.0587 32.7679 34.72C32.8167 34.521 32.8589 34.3539 32.8797 34.2481C33.2294 32.5128 33.5325 30.737 33.071 29.728C32.5826 28.662 31.4052 27.9456 30.0661 27.905C28.9759 27.8716 27.9876 28.2882 27.2777 29.0752C27.2459 29.1108 27.2136 29.1476 27.1857 29.1843L27.1445 29.2325C27.1314 29.2484 27.1193 29.2649 27.1122 29.2835C26.9105 29.4852 26.7735 29.8168 26.6814 30.0393C26.6627 30.0821 26.6457 30.1259 26.6282 30.1697C26.6118 30.1692 26.5959 30.1708 26.5783 30.173C25.8723 29.5992 25.009 29.2769 24.1243 29.2616C23.6206 29.2517 23.1393 29.3443 22.7288 29.5296C22.2338 29.7543 21.7602 30.1067 21.3211 30.5759C21.2926 30.6055 21.2724 30.6406 21.2592 30.6784C21.1128 30.7913 21.029 30.9535 20.9583 31.0872C20.9418 31.1196 20.9265 31.1503 20.9095 31.1804C20.8278 31.3257 20.7555 31.4654 20.6902 31.6014C20.5406 31.1399 20.2484 30.5266 19.7096 30.2163C19.2547 29.9538 18.6594 29.7965 18.0318 29.7707C17.2238 29.7373 16.4877 29.9247 16.0218 30.2783C14.561 31.2714 13.9098 33.1327 13.7437 33.6819C13.2668 35.279 13.1216 37.1957 13.0054 38.7698C12.9489 39.5289 12.9012 40.1998 12.8261 40.6761C12.6502 40.5555 12.4572 40.4552 12.2506 40.4393C12.1678 40.4316 12.0867 40.4399 12.0127 40.4629C11.5501 40.6048 10.8473 41.3157 10.8386 42.0671C10.8265 42.8882 12.2363 43.7766 13.3353 43.8687C13.383 43.8736 13.4285 43.8758 13.4746 43.8775C13.9871 43.8934 14.4376 43.7437 14.8915 43.4078C15.1738 43.2017 15.5646 42.8197 15.837 42.1669C16.104 41.5366 16.2553 40.6415 16.3106 40.2891C16.3846 39.7969 16.44 39.2713 16.4921 38.7643C16.5562 38.1834 16.6148 37.6364 16.6993 37.1524L16.7135 37.0784C16.7754 36.7244 16.8796 36.1341 17.1476 35.814C17.3093 35.6221 17.5105 35.632 17.5209 35.6304C17.886 35.7455 17.9682 36.1258 17.9737 36.4256C17.9781 36.658 17.9358 37.0532 17.8865 37.5147C17.7889 38.4464 17.6574 39.7377 17.7835 40.8257C17.8312 41.3634 18.4851 42.4563 19.259 42.5275C19.4893 42.5484 19.8302 42.4837 20.1421 42.0584C20.2758 41.8742 20.7385 41.188 20.9977 40.0984C21.1227 39.5794 21.2214 38.9929 21.3255 38.3757C21.4828 37.4555 21.6445 36.5079 21.9186 35.6463C22.2305 34.9113 22.4854 34.4892 22.7441 34.2782C22.9941 34.0743 23.2144 34.036 23.3553 34.0398C23.3986 34.0404 23.4419 34.0453 23.4813 34.0552C23.9495 34.1675 23.9906 34.4755 23.9884 35.3278C23.9884 35.4298 23.9884 35.5334 23.9906 35.6391C24.0048 36.5555 23.9078 37.5662 23.8256 38.464C23.6562 40.2754 23.5367 41.5963 24.2838 41.8627C24.3545 41.8874 24.4335 41.9016 24.5206 41.9049C25.0298 41.9224 25.7314 41.5881 26.3125 41.0526C26.8612 40.5467 27.0305 39.5382 27.264 38.1499L27.3172 37.843C27.4701 36.9584 27.5584 36.1965 27.6291 35.586L27.6779 35.1831C27.8851 33.5027 28.0862 32.6657 28.7281 32.1336C28.829 32.0497 29.0323 31.9686 29.2582 31.9763C29.3678 31.9795 29.4675 32.0037 29.5536 32.0486C30.0995 32.3281 30.014 32.8888 29.7882 34.0321C29.7328 34.3045 29.6764 34.5884 29.6298 34.8926C29.507 35.6649 29.4374 36.5375 29.4248 37.4188C29.3837 40.4716 30.9568 40.8608 31.6393 40.8876C31.9424 40.8992 32.2669 40.8526 32.6045 40.7484C34.3569 40.2036 35.0021 39.3442 35.6308 38.5128C35.6796 38.4503 35.7273 38.3867 35.7749 38.3231C35.8511 38.4322 35.9312 38.5429 36.0074 38.6421C36.2864 39.0022 36.7534 39.3782 37.2259 39.6221C37.4194 39.723 37.7175 39.7504 37.9362 39.7553C38.2947 39.763 39.5543 39.724 40.7707 38.9036C41.0716 38.6991 42.1213 37.9285 42.9391 36.5753C43.3732 35.8562 43.8002 34.8729 44.2042 33.6529C44.2228 33.6013 44.2332 33.5663 44.2376 33.5547C44.6728 32.4756 45.1985 31.8765 45.3975 31.8743C45.6058 31.8847 45.6885 31.9691 45.734 32.0311C46.0448 32.4619 45.7187 33.6496 45.5592 34.2212C45.5274 34.333 45.5016 34.4322 45.4797 34.5145C45.2873 35.313 45.1996 35.8934 45.2994 36.6684C45.3438 36.982 45.5828 37.3283 45.904 37.5487C46.0322 37.6353 46.286 37.7208 46.5661 37.7164C46.9049 37.7126 47.2113 37.5783 47.4492 37.3333C47.4968 37.2834 47.5456 37.2428 47.5977 37.1995C47.8811 36.965 48.233 36.6717 48.7323 35.2834C48.9872 34.5747 49.1807 33.1431 49.2925 32.2903C49.3188 32.0782 49.3424 31.9066 49.3567 31.7965L49.3654 31.7477C49.4926 30.8779 49.725 30.2481 50.0561 29.8749C50.4513 29.4282 50.9041 29.4063 50.9539 29.4041C50.9572 29.4041 50.9583 29.4041 50.9605 29.4041C51.182 29.5241 51.1365 30.5172 51.1058 31.1179L51.0992 31.2731C51.0981 31.284 51.0981 31.2972 51.0992 31.3081C51.1145 31.5455 51.1255 31.7894 51.1359 32.0349C51.1803 33.1475 51.2198 34.304 51.757 35.2664C52.4301 36.5057 53.2101 37.0987 54.1435 37.0746C55.4454 37.0417 56.7834 35.7564 57.9356 34.4355C58.146 34.9946 58.4524 35.4835 58.8087 35.8233C59.0368 36.0425 59.546 36.2815 60.0327 36.2892C60.0705 36.2903 60.1078 36.2897 60.1435 36.2892C60.9015 36.2722 61.5259 36.0168 62.1644 35.4605C62.4845 35.1755 62.7597 34.7759 62.8907 34.5846L62.923 34.538C63.2728 34.0349 63.5276 33.5542 63.5973 33.4199C64.0122 32.6142 64.2051 31.8239 64.1032 31.358C63.9941 30.8379 63.572 30.4701 63.0776 30.4668ZM18.5596 32.5052C18.5498 32.5073 18.5421 32.5106 18.5328 32.5123C18.4675 32.5983 18.3842 32.6685 18.2861 32.7123C18.1929 32.7534 18.0855 32.7419 17.9994 32.6855C17.9221 32.7491 17.8333 32.7967 17.7358 32.8132C17.6415 32.8318 17.5401 32.7973 17.4732 32.7288C17.4376 32.7403 17.3981 32.7469 17.3581 32.7485C17.317 32.7825 17.2753 32.8132 17.2342 32.8389C17.1833 32.8718 17.1224 32.8844 17.0638 32.8811C16.9783 32.8757 16.8955 32.8329 16.8379 32.7584C16.7447 32.6345 16.7661 32.4651 16.8845 32.372C16.9021 32.3583 16.918 32.344 16.9377 32.3287C16.9344 32.3265 16.9322 32.3243 16.93 32.3215C16.9158 32.3183 16.901 32.3155 16.8889 32.3111C16.8626 32.3352 16.8368 32.3599 16.8127 32.384C16.7815 32.4197 16.7464 32.4547 16.7064 32.4865C16.6176 32.5583 16.4926 32.5665 16.3934 32.515C16.3934 32.5161 16.3923 32.5167 16.3901 32.5172C16.2553 32.5693 16.0979 32.515 16.0212 32.389C15.9461 32.2634 15.9768 32.1067 16.0941 32.0223C16.144 31.9861 16.1928 31.9286 16.2459 31.8666C16.2503 31.8612 16.2547 31.8551 16.2602 31.8496C16.286 31.7861 16.332 31.7378 16.3928 31.7077C16.4915 31.6123 16.6187 31.5246 16.8023 31.4841C16.85 31.4737 16.8999 31.4758 16.9459 31.4885C16.9656 31.478 16.9837 31.4698 17.0046 31.4627C17.0555 31.426 17.1087 31.3925 17.1685 31.3607C17.2425 31.3218 17.328 31.318 17.4053 31.3454C17.4107 31.3443 17.4173 31.3432 17.4239 31.3421C17.5105 31.3257 17.602 31.3503 17.6706 31.4084C17.7325 31.3624 17.812 31.3432 17.8909 31.3564C17.8986 31.3503 17.9073 31.3432 17.9161 31.3361C17.9616 31.3048 18.0137 31.2862 18.0647 31.2824C18.0833 31.278 18.0992 31.2731 18.1156 31.2698C18.2132 31.25 18.3168 31.2824 18.387 31.3564C18.4111 31.3805 18.4303 31.4084 18.4423 31.438C18.4445 31.4402 18.4467 31.4424 18.4467 31.4424C18.4511 31.4457 18.4533 31.4479 18.4577 31.4512C18.4621 31.4512 18.4653 31.4512 18.4686 31.4523C18.4906 31.4479 18.5097 31.4424 18.5415 31.4468C18.627 31.4523 18.7054 31.4945 18.7564 31.5559C18.866 31.5827 18.9565 31.671 18.9779 31.7866C19.0365 32.0831 18.8529 32.3983 18.5596 32.5052ZM25.1619 31.284C25.0978 31.3333 25.0227 31.3629 24.9662 31.3854L24.9597 31.3881L24.9504 31.392L24.9443 31.3947C24.8637 31.4282 24.7738 31.4243 24.6977 31.3843C24.6933 31.3827 24.6911 31.3799 24.6867 31.3783C24.5782 31.5592 24.4477 31.7417 24.2783 31.8606C24.2674 31.8677 24.2553 31.8749 24.2449 31.8809C24.223 31.8995 24.2027 31.9182 24.1797 31.9351C24.0591 32.0267 23.8908 32.013 23.7888 31.9023C23.7669 31.8776 23.7488 31.8502 23.7368 31.8206C23.705 31.8162 23.6737 31.8041 23.6458 31.7888C23.6036 31.831 23.5559 31.8699 23.5005 31.9034C23.3953 31.9675 23.2604 31.9593 23.1662 31.8803C23.1262 31.8469 23.0966 31.8042 23.0796 31.757C23.0708 31.7625 23.0631 31.7674 23.0532 31.7718C23.0176 31.7915 22.9782 31.802 22.9392 31.8058C22.9184 31.8524 22.8861 31.8929 22.8439 31.9236C22.8082 31.9505 22.7753 32.0042 22.7375 32.065C22.6964 32.1314 22.6498 32.2081 22.5802 32.2793C22.504 32.4388 22.4388 32.6148 22.4322 32.7156C22.5161 32.7918 22.5528 32.914 22.5139 33.0297C22.4728 33.1563 22.3544 33.2336 22.2305 33.2297C22.2014 33.2286 22.1718 33.2232 22.145 33.2133C22.0595 33.1837 21.7821 33.0494 21.8627 32.5813C21.8791 32.4876 21.9301 32.3226 22.0052 32.1445C22.0041 32.1253 22.0063 32.1056 22.0096 32.0859C22.0271 31.9883 22.0693 31.8568 22.1258 31.7208C22.1658 31.5959 22.2332 31.4682 22.316 31.3569C22.3747 31.267 22.4377 31.1914 22.5018 31.1393C22.5248 31.1207 22.5484 31.1064 22.5736 31.0966C22.7172 30.9173 22.8811 30.743 23.0253 30.6696C23.107 30.6285 23.2023 30.629 23.2829 30.6685C23.3251 30.6252 23.3717 30.583 23.4243 30.5457C23.5186 30.4767 23.6436 30.4701 23.7434 30.5293C23.7653 30.5419 23.7834 30.5572 23.7998 30.5742C23.9215 30.4975 24.052 30.4624 24.1895 30.4959C24.2158 30.4887 24.2438 30.4844 24.2745 30.4822C24.3112 30.4789 24.3474 30.4838 24.3797 30.4942C24.3885 30.492 24.3951 30.4893 24.4039 30.4876C24.4877 30.4685 24.5732 30.4865 24.6428 30.5375C24.7114 30.5216 24.7843 30.5309 24.8468 30.566C24.912 30.6033 24.9597 30.663 24.9849 30.7326C24.9904 30.7381 24.9969 30.7447 25.0046 30.7491C25.0901 30.7513 25.1773 30.794 25.2326 30.8708C25.3236 31.0023 25.2935 31.1886 25.1619 31.284ZM30.942 29.8113L30.9146 29.8431C30.8757 29.8897 30.8214 29.956 30.7343 30.0086C30.7332 30.1259 30.7052 30.218 30.6866 30.2881C30.6603 30.3769 30.6603 30.3769 30.6899 30.4301C30.7716 30.572 30.7222 30.7535 30.5814 30.8335C30.4399 30.913 30.2601 30.8625 30.1796 30.7206C30.1056 30.5896 30.0798 30.4756 30.0798 30.378C30.0508 30.3873 30.0179 30.3939 29.9855 30.4005C29.9625 30.4038 29.9378 30.4054 29.9137 30.4032C29.7855 30.5068 29.638 30.5874 29.4988 30.6356C29.4012 30.6702 29.2894 30.6499 29.2088 30.5797C29.1436 30.5227 29.1069 30.4383 29.108 30.3528C29.0871 30.3605 29.0658 30.3676 29.0438 30.372C29.0307 30.3906 29.017 30.4098 29.0038 30.4295C28.9507 30.5167 28.8964 30.6 28.8355 30.6729C28.7857 30.7348 28.7139 30.7721 28.6399 30.7803C28.5977 30.8225 28.5565 30.8609 28.5116 30.8938C28.4672 30.9267 28.4162 30.9458 28.3641 30.9497C28.3609 30.9552 28.3576 30.9623 28.3532 30.9689C28.2989 31.0708 28.1948 31.1273 28.0873 31.1245C28.0588 31.1234 28.0309 31.1196 28.0007 31.1092C27.8922 31.124 27.7793 31.0757 27.7152 30.9782C27.6335 30.8505 27.6587 30.6822 27.7771 30.5857C27.816 30.5556 27.8511 30.5107 27.8856 30.458C27.8637 30.3725 27.8823 30.2766 27.9399 30.2026C27.981 30.1495 28.0227 30.081 28.0692 30.0081C28.1432 29.8864 28.2255 29.7505 28.3373 29.6381C28.408 29.5142 28.4902 29.3876 28.6075 29.2807C28.6804 29.2144 28.7802 29.192 28.8695 29.2122C28.8964 29.1777 28.926 29.1432 28.9605 29.1119C29.0636 29.0166 29.2181 29.0078 29.3322 29.09C29.3541 29.1059 29.3711 29.124 29.3886 29.1448C29.4138 29.124 29.4396 29.1026 29.467 29.0834C29.5689 29.0094 29.7038 29.0078 29.8057 29.079C29.8332 29.0977 29.8556 29.1196 29.8743 29.1448C29.9006 29.1382 29.9252 29.1322 29.9515 29.1289C30.0179 29.1185 30.0831 29.1317 30.1407 29.1629C30.2136 29.1152 30.298 29.078 30.3928 29.0566C30.4745 29.0374 30.56 29.0549 30.6274 29.1032C30.7058 29.0714 30.7957 29.0752 30.873 29.1158C30.9815 29.1728 31.0445 29.2912 31.0314 29.4139C31.0259 29.4561 31.0193 29.4978 31.0084 29.5383C31.0325 29.6315 31.0116 29.7357 30.942 29.8113ZM36.891 31.3153C36.88 31.3487 36.8619 31.3794 36.8378 31.4084C36.8033 31.4506 36.7594 31.4852 36.7106 31.5137C36.6975 31.5285 36.681 31.5411 36.664 31.5526C36.6163 31.5838 36.5686 31.6063 36.5215 31.6216C36.516 31.6551 36.5029 31.6852 36.487 31.7137L36.4881 31.7159C36.5478 31.808 36.5544 31.9247 36.5023 32.0206C36.5012 32.0239 36.5001 32.0256 36.499 32.0283C36.5012 32.0393 36.5023 32.0502 36.5023 32.0618C36.5358 32.1357 36.5401 32.2207 36.5067 32.2969C36.4947 32.327 36.4804 32.3544 36.4656 32.3791C36.4963 32.4345 36.5089 32.4975 36.5001 32.5627C36.4925 32.6203 36.4661 32.6734 36.4305 32.7151C36.4305 32.8011 36.3938 32.8872 36.3253 32.9447C36.3154 32.9519 36.3077 32.9584 36.3012 32.9639C36.3012 32.9677 36.3012 32.9716 36.3034 32.9749C36.3198 33.0686 36.2902 33.1645 36.225 33.2341C36.2009 33.2599 36.1751 33.2823 36.1488 33.3048C36.1532 33.3372 36.1499 33.3679 36.1411 33.3985C36.1756 33.4336 36.2019 33.4775 36.2151 33.5257C36.2403 33.6074 36.2272 33.6956 36.1828 33.768C36.1417 33.8304 36.1077 33.8787 36.0775 33.9192C36.0222 33.9965 36.0145 34.0036 36.0035 34.0738C35.9871 34.1724 35.9958 34.475 36.0222 34.561C36.072 34.7183 35.9843 34.8866 35.8265 34.9354C35.7941 34.9447 35.7612 34.9491 35.73 34.948C35.605 34.9447 35.4899 34.8625 35.4521 34.7359C35.3923 34.5391 35.3869 34.1385 35.4143 33.974C35.4362 33.8288 35.4817 33.7356 35.5283 33.6594C35.474 33.5816 35.4609 33.4835 35.4905 33.3969C35.4187 33.3278 35.3929 33.2308 35.4121 33.13C35.4252 33.0598 35.4674 33.0001 35.525 32.9579C35.514 32.9272 35.5086 32.8932 35.5107 32.8598C35.5107 32.8159 35.5217 32.7732 35.5398 32.7365C35.5234 32.6964 35.5135 32.6515 35.5168 32.6071C35.5179 32.5824 35.5212 32.5589 35.5288 32.5369C35.5234 32.5271 35.519 32.5172 35.5146 32.5057C35.4735 32.3961 35.5003 32.2744 35.5809 32.1917C35.5864 32.1862 35.593 32.1812 35.5974 32.1774C35.5754 32.1511 35.5562 32.1204 35.5442 32.0859C35.5075 31.99 35.5245 31.8853 35.582 31.8069C35.5398 31.7417 35.5212 31.6611 35.5387 31.5811C35.5606 31.4753 35.6374 31.3931 35.7355 31.3597C35.7508 31.3224 35.7744 31.2884 35.804 31.2588C35.878 31.1886 35.9569 31.1459 36.032 31.119C36.072 31.0544 36.1373 31.0067 36.2146 30.9875C36.22 30.9853 36.2244 30.9826 36.2277 30.9804C36.3527 30.9119 36.459 30.9069 36.5297 30.9036C36.5451 30.9036 36.561 30.902 36.5796 30.9004C36.7468 30.879 36.8937 30.9952 36.9151 31.1585C36.9189 31.215 36.9129 31.2681 36.891 31.3153ZM46.0487 28.3019C45.9812 28.3578 45.9281 28.4367 45.8639 28.5282C45.7773 28.6537 45.6803 28.7957 45.5208 28.9146C45.42 28.9903 45.2829 28.9957 45.1799 28.9289C45.1612 29.0357 45.0867 29.1273 44.9831 29.1635C44.9365 29.1799 44.8888 29.1848 44.8428 29.1793C44.8252 29.2939 44.7397 29.3904 44.6246 29.4232C44.4898 29.4611 44.3489 29.4035 44.2837 29.2835C44.2459 29.2166 44.2184 29.1437 44.196 29.0714C44.1729 29.0752 44.1483 29.0741 44.1264 29.0714L44.1275 29.1278C44.1275 29.2857 44.0036 29.4183 43.8452 29.4293C43.7723 29.4353 43.7026 29.4134 43.6484 29.3734C43.6352 29.3854 43.621 29.3964 43.6051 29.4057C43.5985 29.4084 43.5941 29.4112 43.5886 29.415C43.5766 29.4956 43.542 29.5806 43.4669 29.6671C43.3738 29.7762 43.2433 29.8162 43.1107 29.8299C43.0909 29.9368 43.029 30.0229 42.9577 30.0952C43.0087 30.1319 43.0586 30.1752 43.1041 30.2267C43.194 30.3243 43.2071 30.4685 43.1386 30.5819C43.0498 30.7283 42.9473 30.8466 42.8454 30.9623C42.7182 31.1103 42.6075 31.2369 42.5532 31.392C42.4227 31.7636 42.3586 32.4443 42.3652 32.8965C42.3685 33.0626 42.2347 33.1996 42.0665 33.2034H42.0566C41.8949 33.2012 41.7633 33.0702 41.7611 32.9075C41.7557 32.4076 41.8209 31.6573 41.9826 31.1963C42.0758 30.9321 42.2441 30.7414 42.391 30.5715C42.4129 30.5485 42.431 30.5255 42.4518 30.5019C42.4249 30.4893 42.3964 30.4783 42.3652 30.4674L42.2901 30.4345C42.2029 30.3978 42.1383 30.321 42.1163 30.2284C42.0922 30.1369 42.1174 30.0393 42.1772 29.967C42.2457 29.8864 42.3345 29.8223 42.4129 29.7658C42.4162 29.7636 42.4195 29.762 42.4227 29.7598C42.3652 29.6978 42.3339 29.6123 42.3433 29.5246C42.3542 29.4084 42.4321 29.3076 42.5455 29.2698C42.6431 29.2369 42.7516 29.2374 42.8656 29.2374C42.8212 29.1788 42.7812 29.1086 42.7593 29.0237C42.7281 28.902 42.7779 28.7732 42.8832 28.7025C42.9506 28.6565 43.0526 28.6077 43.1655 28.6104C43.1978 28.4131 43.2981 28.2081 43.5826 28.1594C43.6111 28.1544 43.6402 28.1533 43.6681 28.1566C43.6922 28.1117 43.7202 28.0689 43.7525 28.0251C43.8331 27.9204 43.9696 27.8798 44.0935 27.9231C44.1686 27.9494 44.2283 28.0037 44.2606 28.0717C44.2919 28.0766 44.3204 28.0865 44.3473 28.1007C44.3538 28.0733 44.3615 28.0443 44.3703 28.0169C44.3977 27.9171 44.4744 27.8387 44.5753 27.8091C44.675 27.7806 44.7814 27.8042 44.8598 27.8722C44.8641 27.8765 44.8674 27.8798 44.8718 27.8837C44.8872 27.8557 44.9003 27.8283 44.914 27.8009C44.9847 27.6705 45.1377 27.6085 45.2769 27.6562C45.341 27.6759 45.3909 27.7159 45.4265 27.7669C45.5038 27.7105 45.6036 27.6929 45.6957 27.7209C45.7357 27.734 45.7741 27.7549 45.8042 27.7828C45.9105 27.7636 46.0267 27.8025 46.0964 27.8941C46.1939 28.019 46.172 28.1994 46.0487 28.3019ZM52.3544 26.7108C52.287 26.8176 52.162 26.8713 52.0393 26.8456C51.9176 26.8193 51.8266 26.7212 51.8112 26.5973C51.8112 26.5951 51.8112 26.5929 51.8112 26.5902C51.7449 26.6022 51.6786 26.5918 51.6232 26.5644C51.6199 26.565 51.6166 26.5666 51.6144 26.5682C51.5459 26.5989 51.4703 26.6017 51.4018 26.582C51.3798 26.6609 51.3453 26.7436 51.2889 26.8269C51.2094 26.9442 51.0575 26.9908 50.9282 26.9366C50.8476 26.9042 50.789 26.839 50.7632 26.7617C50.7336 26.7491 50.7056 26.7321 50.6804 26.7108C50.6448 26.7831 50.5839 26.8396 50.5056 26.8664C50.4349 26.8905 50.3554 26.8867 50.2885 26.8576C50.2852 26.9793 50.2057 27.09 50.0873 27.1322C50.0029 27.1613 49.9125 27.1514 49.8396 27.1081C49.8144 27.1986 49.7497 27.2758 49.6571 27.3115C49.6253 27.3235 49.5929 27.3306 49.5606 27.3317C49.5485 27.3575 49.5321 27.3833 49.5129 27.4068C49.474 27.4523 49.4219 27.4841 49.3676 27.4995C49.3709 27.557 49.3556 27.6178 49.3254 27.671C49.3046 27.7044 49.2788 27.7335 49.2481 27.7565C49.2558 27.7823 49.2591 27.8097 49.2591 27.8409C49.2514 28.0717 49.1572 28.2344 49.081 28.3638C49.0568 28.4033 49.0333 28.4433 49.0113 28.4888C48.8919 28.731 48.8266 29.0045 48.7592 29.2928C48.6874 29.5981 48.6134 29.9138 48.467 30.2196C48.4128 30.3287 48.3064 30.3934 48.1935 30.3956C48.1524 30.3956 48.108 30.3868 48.0664 30.3687C47.9189 30.3002 47.8559 30.1243 47.9282 29.9735C48.0488 29.7269 48.1108 29.4567 48.1782 29.1717C48.25 28.8615 48.3267 28.5408 48.478 28.2355C48.5065 28.1769 48.5367 28.1232 48.5668 28.0728C48.6068 28.0048 48.6342 27.9593 48.6474 27.9155C48.5498 27.7834 48.4106 27.5674 48.5575 27.3564C48.5652 27.3454 48.5728 27.3356 48.5816 27.3252C48.5597 27.2292 48.586 27.1235 48.66 27.0473C48.7296 26.9749 48.8129 26.9229 48.9012 26.8916C48.9067 26.8686 48.9121 26.845 48.9209 26.8226C48.9796 26.6587 49.1226 26.5491 49.3084 26.5233C49.3358 26.5189 49.3627 26.5189 49.389 26.5228C49.4044 26.4904 49.4203 26.4581 49.4356 26.4274L49.4767 26.3485C49.5145 26.2712 49.5842 26.2136 49.6658 26.1901C49.6812 26.1868 49.6938 26.184 49.708 26.1824C49.7278 26.1035 49.7612 26.0284 49.81 25.9571C49.8555 25.8908 49.9273 25.8459 50.0079 25.8322C50.0884 25.819 50.1696 25.8387 50.2326 25.887C50.2671 25.9122 50.2978 25.9396 50.3225 25.9675C50.368 25.887 50.4497 25.8322 50.5417 25.8196C50.5938 25.8119 50.6448 25.8179 50.6903 25.8365C50.7023 25.8218 50.7177 25.807 50.7303 25.7933C50.8147 25.7088 50.9397 25.6814 51.0504 25.7236C51.057 25.7258 51.0625 25.7286 51.0691 25.7319C51.1277 25.6639 51.2149 25.6277 51.3058 25.6305C51.3245 25.6316 51.3437 25.6338 51.3601 25.637C51.3623 25.6354 51.3634 25.6332 51.3667 25.631C51.4352 25.5625 51.5317 25.5307 51.6271 25.5455C51.6879 25.5554 51.7444 25.585 51.7855 25.6277C51.854 25.6212 51.9192 25.6338 51.9779 25.6721C52.0009 25.6858 52.0212 25.7017 52.042 25.7187C52.0798 25.6973 52.1204 25.6831 52.1659 25.6782C52.3243 25.6606 52.4723 25.779 52.4854 25.9401C52.5096 26.1939 52.5096 26.4625 52.3544 26.7108ZM58.5341 29.0741C58.5286 29.0922 58.5199 29.1086 58.5111 29.1251C58.5166 29.1426 58.5221 29.1618 58.5254 29.1788C58.5451 29.2846 58.5067 29.3947 58.4234 29.4638C58.3746 29.506 58.3236 29.5455 58.2705 29.5833C58.2672 29.5855 58.2639 29.5877 58.2617 29.5904C58.2694 29.6156 58.2759 29.6425 58.2781 29.6704C58.2968 29.8403 58.2063 29.9637 58.1466 30.0371C58.3735 30.2213 58.277 30.4816 58.2343 30.5978C58.1844 30.7293 58.1192 30.8527 58.0572 30.9711C57.9498 31.1695 57.8511 31.358 57.8424 31.5635C57.8369 31.7252 57.7064 31.8562 57.5513 31.859C57.5491 31.859 57.5469 31.859 57.5447 31.859C57.3863 31.859 57.2635 31.7252 57.269 31.5613C57.2811 31.2144 57.4263 30.942 57.5535 30.7014C57.6045 30.6049 57.6533 30.5134 57.6883 30.4257C57.6286 30.3627 57.5765 30.2722 57.5469 30.1325C57.5124 29.9615 57.5826 29.8288 57.6467 29.7433C57.6133 29.7 57.5891 29.6485 57.5826 29.5904C57.5738 29.5088 57.6012 29.4265 57.6533 29.3635C57.6922 29.3164 57.7371 29.2758 57.7782 29.2391C57.7525 29.192 57.7393 29.136 57.7426 29.0774C57.747 29.0023 57.7815 28.936 57.8336 28.8856C57.8314 28.8752 57.8292 28.8637 57.8281 28.8527C57.8172 28.7661 57.8457 28.6773 57.9043 28.6126C57.8879 28.5737 57.8764 28.5332 57.8687 28.4915C57.8632 28.44 57.8621 28.3901 57.8687 28.3397C57.7777 28.2816 57.7229 28.172 57.7382 28.0563C57.7525 27.9555 57.8155 27.8722 57.8999 27.8289C57.9098 27.7598 57.9454 27.6935 58.003 27.6442C58.1258 27.5395 58.3105 27.5592 58.4113 27.6814C58.4623 27.7423 58.4941 27.8168 58.5166 27.8716L58.5286 27.8974C58.5643 27.9768 58.5632 28.0695 58.5243 28.1489C58.5232 28.1533 58.521 28.1566 58.5199 28.1594C58.5243 28.1769 58.5253 28.195 58.5275 28.2131C58.5319 28.2739 58.5166 28.3347 58.4853 28.3852C58.5752 28.4433 58.6268 28.5507 58.6147 28.6609C58.6059 28.7343 58.5725 28.8006 58.5204 28.8483C58.5539 28.9152 58.5615 28.9974 58.5341 29.0741Z" fill="black"/>
<path d="M24.8905 31.2725L24.9508 31.392L24.9601 31.3881L24.9026 31.2549L24.8905 31.2725Z" fill="black"/>
<path d="M24.6422 30.7124C24.6285 30.7025 24.6121 30.6998 24.5973 30.6921L24.8598 31.2117L24.8725 31.1854L24.6675 30.7107C24.6592 30.7124 24.6505 30.7102 24.6422 30.7124Z" fill="black"/>
</svg>
