<svg width="74" height="64" viewBox="0 0 74 64" fill="none" xmlns="http://www.w3.org/2000/svg">
<path d="M32.1546 24.5023C32.3476 24.4558 32.5386 24.4121 32.7354 24.3873C32.8171 24.3769 32.8998 24.3702 32.9825 24.3645C33.0158 24.3645 33.049 24.3645 33.0823 24.3645C33.2867 24.3693 33.491 24.3892 33.6925 24.4235C33.7239 24.4292 33.7553 24.4349 33.7866 24.4415C33.8731 24.4662 33.9596 24.4909 34.0452 24.5204C34.1317 24.5508 34.2172 24.5841 34.3018 24.6212C34.3902 24.6592 34.7476 24.8512 34.3892 24.6516C34.6706 24.8075 34.9253 24.9139 35.2561 24.8588C35.5279 24.8132 35.8368 24.6402 35.9927 24.4063C36.16 24.1564 36.2636 23.8427 36.1999 23.5395C36.1429 23.2686 36.0013 22.9435 35.7475 22.8029C35.1896 22.493 34.6601 22.2877 34.0328 22.1622C33.5062 22.0567 32.954 22.0577 32.4217 22.1176C31.3781 22.2345 30.3259 22.6917 29.5512 23.4036C29.1102 23.8085 28.9496 24.5299 29.3763 25.0156C29.7641 25.4576 30.5169 25.6239 30.9884 25.1905C31.1376 25.0536 31.2954 24.9272 31.4636 24.8141C31.4902 24.7989 31.5226 24.7789 31.533 24.7732C31.6224 24.7248 31.7146 24.6791 31.8077 24.6383C31.8913 24.6012 31.9769 24.566 32.0634 24.5347C32.0928 24.5233 32.1242 24.5128 32.1546 24.5023Z" fill="black"/>
<path d="M44.1565 25.6173C44.2373 25.5964 44.32 25.5774 44.4017 25.5612C44.5186 25.5394 44.6365 25.5318 44.7544 25.5223C44.8428 25.5261 44.9312 25.5346 45.0186 25.5479C45.0927 25.5717 45.165 25.6002 45.2363 25.6316C45.2933 25.6686 45.3475 25.7095 45.4007 25.7523C45.4093 25.7618 45.4188 25.7703 45.4273 25.7808C45.4302 25.7846 45.433 25.7884 45.4359 25.7922C45.4473 25.8198 45.4587 25.8445 45.471 25.8701C45.472 25.8758 45.4729 25.8806 45.4739 25.8863C45.5727 26.4784 46.1858 26.9584 46.7932 26.8301C47.3996 26.7018 47.8435 26.1439 47.737 25.5108C47.5326 24.2933 46.5061 23.5205 45.356 23.2791C44.3209 23.0624 43.2402 23.4635 42.3125 23.8884C41.767 24.1383 41.4552 24.8455 41.7337 25.4034C42.0093 25.9557 42.6661 26.2484 43.2488 25.9823C43.5444 25.8473 43.8419 25.7266 44.1479 25.6173C44.1508 25.6183 44.1536 25.6173 44.1565 25.6173Z" fill="black"/>
<path d="M32.779 36.8217C33.1183 36.2038 33.3103 35.4862 33.4814 34.8047C33.662 34.0824 33.8084 33.3533 33.8882 32.6119C34.0621 30.9971 33.9709 29.3403 33.623 27.754C33.4976 27.1818 32.9938 26.7588 32.4035 26.8035C31.9235 26.5117 31.1955 26.5953 30.8761 27.0924C30.0226 28.425 29.6119 29.9316 29.438 31.4942C29.3534 32.2574 29.3211 33.0245 29.2945 33.7915C29.2736 34.4084 29.2508 35.0557 29.3952 35.6602C29.5616 36.3559 29.8895 37.0355 30.4864 37.4604C31.3095 38.0469 32.3275 37.6448 32.779 36.8217ZM31.7591 35.5281C31.838 35.645 31.837 35.5889 31.7591 35.5281Z" fill="black"/>
<path d="M43.3486 32.669C43.4627 32.6386 43.4114 32.6509 43.3486 32.669Z" fill="black"/>
<path d="M45.5651 30.3583C45.28 30.2975 44.991 30.2509 44.6926 30.2385C43.7668 30.2005 42.8477 30.3592 41.9979 30.7347C41.4485 30.978 41.1434 31.6975 41.4191 32.2498C41.6976 32.8077 42.3477 33.0881 42.9342 32.8286C43.0482 32.7782 43.1623 32.7317 43.2801 32.6899C43.2972 32.6832 43.3229 32.6765 43.3467 32.6689C43.3191 32.6765 43.2849 32.6851 43.2355 32.6984C43.2953 32.6832 43.3552 32.6642 43.4151 32.6499C43.6556 32.5901 43.9018 32.5492 44.1489 32.5273C44.1869 32.5235 44.2268 32.5226 44.2658 32.5197C44.2725 32.5197 44.2791 32.5197 44.2867 32.5197C44.4112 32.5197 44.5348 32.5254 44.6593 32.5349C44.8408 32.5492 45.0205 32.5777 45.1992 32.6129C45.5281 32.7013 45.8455 32.8201 46.1497 32.976C46.1392 33.2972 46.1126 33.6185 46.0518 33.935C46.0004 34.2021 46.1354 34.5585 46.2999 34.7629C46.4785 34.9853 46.7951 35.1706 47.084 35.1858C47.3749 35.2011 47.6866 35.1355 47.9119 34.9378C48.1562 34.7239 48.274 34.472 48.3349 34.1536C48.6124 32.7108 48.39 31.152 47.756 29.8289C47.4965 29.288 46.8055 28.9687 46.2409 29.25C45.8237 29.4582 45.5461 29.9011 45.5651 30.3583Z" fill="black"/>
<path d="M73.6835 50.1523C73.7462 49.1629 73.9258 48.1782 73.7196 47.1906C73.3783 45.5548 72.1199 44.6652 70.6846 44.0131C69.9765 43.8601 69.2247 43.9447 68.5727 44.2783C68.3084 44.0844 68.0176 43.9209 67.6944 43.8002C67.6507 43.784 67.6089 43.7755 67.567 43.766C67.5566 43.7622 67.548 43.7546 67.5366 43.7517C65.3353 43.0598 63.094 42.3745 60.7606 42.4334C60.0439 42.4515 59.2778 42.5399 58.5649 42.7537C57.795 42.1559 56.7172 42.2766 55.9948 42.9001C55.799 43.0693 55.6327 43.2575 55.4863 43.4609C55.5899 41.692 55.4217 39.9079 54.9645 38.1885C54.955 38.1533 54.9445 38.1191 54.9331 38.0849C54.9217 37.8492 54.8751 37.6078 54.7896 37.3663C54.7772 37.3302 54.7554 37.2808 54.7354 37.2304C54.7306 37.2085 54.724 37.1829 54.7154 37.1487C54.6746 36.9804 54.6327 36.8131 54.5985 36.643C54.5215 36.2581 54.4702 35.8674 54.4407 35.4758C54.4369 35.4273 54.435 35.3798 54.4322 35.3313C54.4769 35.2676 54.4303 34.82 54.4322 34.7458C54.4436 34.3466 54.4712 33.9474 54.5101 33.5501C54.6651 31.9704 54.9949 30.4144 55.2278 28.8452C55.4768 27.1704 55.6051 25.45 55.3713 23.7638C55.1232 21.9674 54.3923 20.2394 53.3372 18.77C53.1709 18.538 52.9912 18.3137 52.8011 18.0961C52.9352 18.0362 53.0682 17.9734 53.1975 17.906C53.2308 17.8546 53.2707 17.8052 53.3249 17.7596C53.3353 17.7501 53.3439 17.7396 53.3543 17.7301C53.3838 17.6759 53.4171 17.6218 53.4617 17.5685C53.6452 17.3471 53.803 17.1123 53.9493 16.8728C53.9522 16.8661 53.9541 16.8585 53.9569 16.8519C53.9579 16.85 53.9588 16.849 53.9598 16.8471C53.9864 16.7844 54.0083 16.7188 54.033 16.6542C54.0501 16.6076 54.0701 16.562 54.0862 16.5135C54.11 16.4451 54.1299 16.3747 54.1508 16.3053C54.1661 16.2569 54.1822 16.2084 54.1955 16.1599C54.2164 16.0877 54.2354 16.0154 54.2544 15.9432C54.2982 15.7797 54.34 15.6181 54.3837 15.4603C54.5558 14.8273 54.7107 14.1506 54.6898 13.4871C54.6879 13.4016 54.6822 13.317 54.6736 13.2324C54.6641 13.1383 54.647 13.0499 54.6261 12.9644C54.6194 12.9358 54.609 12.9102 54.6004 12.8826C54.5833 12.8275 54.5662 12.7724 54.5453 12.7201C54.5329 12.6897 54.5177 12.6611 54.5044 12.6317C54.4826 12.5861 54.4598 12.5404 54.435 12.4977C54.4179 12.4691 54.3999 12.4406 54.3809 12.4131C54.3543 12.3722 54.3257 12.3332 54.2963 12.2952C54.2754 12.2686 54.2544 12.2429 54.2326 12.2173C54.2003 12.1802 54.167 12.145 54.1328 12.1099C54.11 12.0861 54.0862 12.0633 54.0624 12.0405C54.0244 12.0053 53.9855 11.973 53.9455 11.9397C53.9218 11.9198 53.898 11.8998 53.8733 11.8808C53.8277 11.8456 53.7802 11.8133 53.7317 11.78C53.7108 11.7658 53.6899 11.7506 53.668 11.7363C53.5967 11.6907 53.5245 11.647 53.4494 11.6052C52.958 11.3333 52.3924 11.1442 51.8944 10.9588C51.1159 10.6699 50.3327 10.3942 49.5505 10.1176C48.8129 9.95415 48.0753 9.77736 47.3586 9.54163C47.3472 9.53593 47.3358 9.53118 47.3244 9.52548C47.083 9.44563 46.8425 9.36294 46.6068 9.26694C45.9548 9.00175 45.2409 8.63391 44.7115 8.11305C44.7068 8.11019 44.702 8.10639 44.6973 8.10354C44.5965 8.03796 44.5005 7.96762 44.4036 7.89728C44.3076 7.82505 44.2144 7.74996 44.1241 7.67202C42.5425 6.65404 40.9913 5.57238 39.3422 4.65706C35.8928 2.74372 32.0956 1.1697 28.1511 0.687804C22.1174 -0.0497773 15.2368 3.4832 14.7967 9.74884C14.5134 10.2269 14.2796 10.7402 14.1047 11.2896C14.081 11.2725 14.0572 11.2544 14.0334 11.2373C12.1115 11.5215 10.3018 12.4891 8.80669 13.739C4.2814 17.5201 2.36045 23.5186 1.46889 29.2995C0.890995 33.0463 0.660976 36.9187 1.60957 40.5933C2.55816 44.2679 4.82223 47.7466 8.23449 49.4994C8.83425 49.8073 9.51766 50.0659 10.1754 49.9109C10.5204 49.8301 10.817 49.641 11.0708 49.3967C11.738 51.7102 13.4945 53.7842 15.1493 55.42C17.056 57.3057 19.283 58.8722 21.7096 60.0137C26.9582 62.4831 32.7477 62.983 38.3499 61.4746C38.8565 61.3387 39.3621 61.1866 39.8678 61.0279C40.133 61.1581 40.4029 61.2836 40.6805 61.4005C40.7489 61.429 40.8173 61.4565 40.8877 61.4832C40.8497 61.7759 40.9038 62.0183 40.9761 62.197C41.1519 62.6314 41.5473 62.9612 42.0615 63.1037L42.0786 63.1085C42.5168 63.2264 42.9626 63.2938 43.4027 63.31C45.2647 63.3765 47.0488 63.0268 48.3966 62.7159C49.4906 62.4631 50.7709 62.12 51.9666 61.4974C52.3896 61.2769 52.7774 60.9994 53.0892 60.6923C53.0968 60.6847 53.1025 60.6771 53.1101 60.6695C53.226 60.5859 53.3325 60.4718 53.4199 60.3217C53.8961 59.509 54.4864 58.8075 55.2154 58.2087C55.9435 57.6099 56.8141 57.1983 57.6525 56.7773C58.1553 56.5244 58.6571 56.2536 59.1362 55.9541C59.3434 55.9218 59.5477 55.8715 59.7435 55.7926C59.7663 55.7831 59.7863 55.7717 59.8063 55.7593C60.1418 55.9399 60.5401 56.0264 60.9155 55.9494C61.2938 55.8724 61.6493 55.7175 61.9991 55.5578C62.7794 55.2023 63.5255 54.7708 64.2147 54.2604C64.2365 54.2442 64.2555 54.2233 64.2764 54.2043C64.8391 54.1387 65.399 54.0104 65.9436 53.8422C66.4901 53.6739 67.107 53.4895 67.7058 53.251C68.4377 54.0988 69.8435 53.9144 70.7864 53.5304C71.8956 53.078 72.8147 52.2349 73.3327 51.1513C73.4914 50.8186 73.6046 50.4774 73.6787 50.1314C73.6797 50.14 73.6816 50.1466 73.6835 50.1523ZM53.6566 46.6289C53.399 46.9102 53.1756 47.2115 53.0407 47.5623C52.6481 47.7466 52.2413 47.9149 51.8269 48.0793C49.925 48.835 47.8025 49.4423 44.9586 50.0459C42.6461 50.4888 39.9153 50.9355 37.1988 50.888C36.5553 50.8766 35.9128 50.7873 35.2323 50.6932L35.0764 50.6713C35.8178 50.1162 36.6894 49.7313 37.522 49.3986C40.2623 48.3055 43.2582 47.5261 46.9499 46.9473C49.1969 46.5947 50.9154 46.4625 52.5217 46.5196C52.8943 46.5338 53.2745 46.5747 53.6566 46.6289ZM23.3739 57.6498C21.2173 56.6813 19.1956 55.3363 17.4875 53.7005C15.7966 52.0809 13.5801 49.7693 13.6475 47.2676C13.7074 45.0368 14.6674 42.7651 13.5316 40.713C13.3947 41.0409 13.2208 41.347 12.9936 41.616C12.39 42.3288 11.3207 42.3735 10.7381 41.5894C10.4815 41.2434 10.3969 40.8413 10.3997 40.4288C10.3142 40.2615 10.2704 40.0705 10.28 39.8728C10.2952 39.5591 10.298 39.5591 10.2543 39.2122C10.2248 38.9803 10.1811 38.7502 10.1298 38.5221C10.0214 38.0393 9.87599 37.5659 9.75528 37.0869C9.48914 36.0271 9.42356 34.954 9.75148 33.8989C10.1117 32.7393 10.9919 31.7042 12.1429 31.2737C12.6381 31.0893 13.1362 31.0256 13.6152 31.0722C13.7806 31.0826 13.945 31.114 14.1066 31.1587C14.1332 31.1653 14.1589 31.1767 14.1846 31.1843C14.2502 31.2052 14.3176 31.2214 14.3813 31.248C14.3965 31.2547 14.4098 31.2632 14.425 31.2699C14.9317 31.4647 15.3983 31.7869 15.7842 32.2394C16.0884 32.5958 16.0779 32.9855 15.904 33.2963C16.0295 33.9255 16.0285 34.6071 15.9781 35.2363C16.1445 35.3874 16.3137 35.5357 16.4886 35.6773C16.6178 35.7819 16.7499 35.8826 16.8868 35.9777C16.9477 36.0195 17.0094 36.0604 17.0722 36.1003C17.0769 36.1031 17.0826 36.1069 17.0874 36.1098C17.1957 36.1297 17.3592 36.2362 17.4581 36.2752C17.4989 36.2799 17.5408 36.2875 17.5816 36.2904C17.6634 36.2961 17.7413 36.316 17.8164 36.3426C18.4979 36.1269 19.1547 35.7267 19.7478 35.1365C21.8636 33.0283 22.6829 29.7215 23.2789 26.8967C23.8197 24.3322 24.0621 21.7307 24.0098 19.1226C30.5958 20.5474 37.4992 20.9856 44.0053 19.3745C45.0717 19.3868 46.1401 19.3298 47.217 19.2119C47.5164 19.2927 47.8101 19.3887 48.0953 19.5123C48.1599 19.5399 48.2226 19.5712 48.2863 19.6007C48.2825 19.595 48.2778 19.5902 48.274 19.5845C48.2778 19.5902 48.2835 19.5959 48.2882 19.6016C48.3129 19.613 48.3386 19.6254 48.3633 19.6368C48.5106 19.7024 48.4802 19.73 48.4118 19.7033C48.5325 19.7794 48.6941 19.8488 48.7701 19.9029C48.9108 20.0018 49.0477 20.1073 49.1807 20.2166C49.2235 20.2518 49.2653 20.2888 49.3071 20.3259C49.3642 20.4105 49.6132 20.632 49.6541 20.6785C49.8033 20.8468 49.9449 21.0217 50.0799 21.2013C50.1854 21.342 50.2785 21.4922 50.3821 21.6338C50.3964 21.6538 50.405 21.6652 50.4126 21.6747C50.4325 21.7155 50.4506 21.7536 50.462 21.7735C50.6578 22.129 50.8289 22.4978 50.9753 22.8761C51.0399 23.0424 51.0941 23.2107 51.153 23.3789C51.1568 23.3893 51.1577 23.3922 51.1606 23.4008C51.172 23.454 51.1806 23.5063 51.1891 23.5405C51.2785 23.9083 51.345 24.2819 51.3878 24.6573C51.4077 24.8331 51.4201 25.009 51.4343 25.1848C51.4372 25.2238 51.44 25.2533 51.4419 25.277C51.441 25.3245 51.44 25.3711 51.44 25.4148C51.441 25.795 51.4258 26.1752 51.3982 26.5545C51.3431 27.3206 51.2404 28.0829 51.1207 28.8414C50.8859 30.3308 50.5836 31.8117 50.4468 33.3153C50.27 35.2667 50.4211 37.1791 51.077 39.0306C51.3593 39.8281 52.2974 40.2948 53.1376 40.2245C53.3401 41.5647 53.3591 42.9191 53.2004 44.2574C51.1007 44.1158 49.0524 44.3505 47.2636 44.591C45.1459 44.8752 42.9864 45.3143 40.8459 45.8979C39.3146 46.3143 37.3081 46.9131 35.3748 47.8512C35.0564 48.0061 34.7323 48.1687 34.4148 48.354C34.6106 48.0385 34.6867 47.6316 34.5612 47.3589C34.3645 46.9311 33.912 46.8494 33.4672 47.1374C31.8903 48.1582 30.8828 50.2502 30.9931 52.0324C31.0225 52.5124 31.5025 52.7833 31.9331 52.5865C32.2487 52.4421 32.4806 52.1636 32.5908 51.8423C32.6213 51.9488 32.6536 52.0543 32.683 52.1607C32.8209 52.6483 32.9634 53.153 33.1602 53.6454C34.0061 55.7602 35.2028 57.5196 36.7331 58.9149C32.242 59.8996 27.6597 59.5755 23.3739 57.6498ZM51.4819 57.5377C51.2547 57.7496 51.0019 57.9407 50.7196 58.1526C50.2434 58.5091 50.0637 58.9396 50.1844 59.4329C50.2082 59.5308 50.25 59.6497 50.3213 59.7685C48.7568 60.3891 45.7057 61.007 43.9882 61.0497C44.0024 60.9452 44.0024 60.8349 43.9863 60.7228C43.9473 60.4405 43.7791 59.95 43.0919 59.759C43.0672 59.7523 43.0415 59.7457 43.0149 59.739C41.7897 59.4529 40.6463 58.9482 39.596 58.241C39.5817 58.2011 39.5656 58.1612 39.5522 58.1213C39.5513 58.1184 39.5513 58.1165 39.5503 58.1137C39.518 58.1241 39.4857 58.1346 39.4534 58.146C39.038 57.857 38.6369 57.5377 38.2529 57.1831C37.0173 56.0416 36.0563 54.6558 35.3881 53.0561C35.7313 53.0989 36.081 53.1378 36.4327 53.1587C38.4059 53.2757 40.3288 53.0751 41.9503 52.8631C44.0091 52.5951 46.0479 52.1997 48.0116 51.6883C49.924 51.1912 51.9438 50.601 53.9028 49.6761C54.1385 49.7883 54.3932 49.8643 54.6508 49.9337C54.7915 49.9708 54.9321 49.9508 55.0624 49.8986C54.8761 52.9544 53.6994 55.4646 51.4819 57.5377ZM56.2182 55.0569C56.3009 54.8231 56.3769 54.5873 56.4472 54.3507C56.6516 53.6587 56.8322 52.9658 57.0413 52.2805C57.0917 52.0581 57.1354 51.8338 57.1753 51.6085C57.4766 52.1522 57.8834 52.5856 58.468 52.7938C58.3967 53.1236 58.3891 53.4686 58.4547 53.8203C57.7817 54.3193 56.9862 54.6881 56.2182 55.0569ZM68.4405 50.9783C68.0679 51.3281 67.5566 51.5192 67.0908 51.7016C66.5282 51.9231 65.9607 52.1408 65.3828 52.3185C64.2346 52.6721 62.9971 52.8232 61.884 52.2833C60.9421 51.8262 60.2578 53.3023 61.2006 53.7595C61.3442 53.8288 61.4886 53.8878 61.635 53.941C61.5818 53.9667 61.5276 53.9923 61.4744 54.017C61.3099 54.0931 61.1436 54.1644 60.9763 54.2319C60.8841 54.2689 60.7881 54.2993 60.6969 54.3383C60.6798 54.3431 60.6684 54.3469 60.657 54.3497C60.6427 54.3507 60.6341 54.3526 60.6294 54.3535C60.6265 54.3526 60.6227 54.3526 60.6199 54.3526H60.6189C60.5743 54.3336 60.5315 54.3126 60.4887 54.2889C60.4716 54.2784 60.4612 54.2727 60.4517 54.267C60.4222 54.2404 60.3918 54.209 60.3756 54.1938C60.3576 54.1777 60.3404 54.1596 60.3224 54.1425C60.3176 54.1368 60.3157 54.1349 60.31 54.1283C60.2701 54.0693 60.2264 54.0142 60.1884 53.9534C60.1779 53.9353 60.1703 53.9248 60.1637 53.9153C60.1618 53.9087 60.1608 53.9039 60.157 53.8935C60.1294 53.8165 60.1 53.7395 60.0734 53.6625C60.0696 53.6521 60.0677 53.6483 60.0648 53.6406C60.0639 53.6349 60.0639 53.6321 60.0629 53.6245C60.0515 53.5428 60.0401 53.462 60.0353 53.3793C60.0344 53.3555 60.0344 53.3327 60.0344 53.3089C60.0467 53.2395 60.0505 53.1692 60.0648 53.0998C60.0715 53.0694 60.0791 53.039 60.0867 53.0086C60.0895 53.001 60.0905 52.9972 60.0943 52.9877C60.1209 52.9249 60.1456 52.8622 60.1751 52.8014C60.1893 52.7719 60.2758 52.6417 60.2749 52.636C60.3442 52.5457 60.4165 52.4601 60.4944 52.3765C60.5001 52.3755 60.617 52.2653 60.6408 52.2472C60.6959 52.2064 60.752 52.1664 60.81 52.1294C60.8347 52.1132 60.9887 52.0362 60.9801 52.0362C61.0457 52.0077 61.1113 51.9792 61.1788 51.9545C61.578 51.8071 61.8308 51.3176 61.6626 50.9108C61.4934 50.505 61.0457 50.2702 60.6189 50.427C60.0886 50.6228 59.6 50.9565 59.217 51.3775C59.1286 51.3195 59.0269 51.2758 58.9147 51.2464C58.9375 51.2521 58.9508 51.2568 58.9603 51.2606C58.9518 51.2568 58.9385 51.2502 58.9204 51.2407C58.9119 51.2359 58.9081 51.235 58.9014 51.2312C58.8995 51.2283 58.8995 51.2264 58.8957 51.2226C58.8691 51.1893 58.8235 51.157 58.7911 51.1275C58.7892 51.1237 58.7883 51.1209 58.7854 51.1152C58.7322 51.0201 58.6552 50.9337 58.5982 50.8396C58.5744 50.7996 58.5516 50.7588 58.5288 50.7188C58.525 50.7122 58.5241 50.7103 58.5212 50.7055C58.5203 50.7017 58.5203 50.7008 58.5184 50.696C58.4841 50.6038 58.4423 50.5154 58.411 50.4213C58.41 50.3805 58.4052 50.332 58.3976 50.2921C58.4052 50.2379 58.4186 50.1837 58.4271 50.1295C58.4271 50.1295 58.4271 50.1295 58.4281 50.1286C58.4547 50.0792 58.4775 50.0193 58.5003 49.967C58.5079 49.9508 58.5127 49.9404 58.5165 49.9318C58.5355 49.9052 58.5535 49.8777 58.5735 49.852C58.6096 49.8045 58.6486 49.7598 58.6894 49.7161C58.6942 49.7113 58.7189 49.6838 58.7389 49.6628C58.7598 49.6448 58.7969 49.6096 58.8035 49.6039C58.851 49.5649 58.9005 49.5269 58.9508 49.4899C59.0307 49.4309 59.1143 49.3758 59.198 49.3235C59.3861 49.2047 59.582 49.0963 59.7797 48.9946C59.7939 48.988 59.8167 48.9766 59.8319 48.968C59.8804 48.9443 59.9289 48.9196 59.9774 48.8958C60.099 48.8369 60.2216 48.7798 60.3442 48.7238C60.7311 48.5479 61.0048 48.1069 60.828 47.6801C60.6693 47.299 60.1979 47.0081 59.7844 47.1963C59.1904 47.4672 58.5146 47.7752 57.9557 48.1981C57.93 48.1402 57.891 48.0594 57.8758 47.9909C57.8768 47.9805 57.8768 47.9624 57.8711 47.9272C57.8625 47.8778 57.8559 47.8274 57.8502 47.7771C57.8454 47.7267 57.8416 47.6763 57.8397 47.6259C57.8388 47.6098 57.8359 47.586 57.8321 47.5651C57.8349 47.4872 57.8559 47.3988 57.8701 47.3284C57.8787 47.2866 57.8891 47.2457 57.8986 47.2039C57.9005 47.2001 57.9015 47.1992 57.9034 47.1935C57.9176 47.1621 58.0203 46.992 58.0308 46.9387C58.0631 46.8969 58.0954 46.856 58.1306 46.8161C58.1591 46.7838 58.1914 46.7543 58.2199 46.723C58.0944 46.8598 58.2237 46.7239 58.2579 46.6983C58.3425 46.6346 58.4319 46.5785 58.5231 46.5243C58.5697 46.5053 58.6144 46.4825 58.6609 46.4625C58.8643 46.377 59.0744 46.3105 59.2883 46.2544C59.3348 46.242 59.3814 46.2306 59.4289 46.2192C59.4422 46.2164 59.4584 46.2126 59.4755 46.2088C59.5943 46.1831 59.7131 46.1603 59.8319 46.1375C60.2483 46.0567 60.6294 45.7145 60.5638 45.2507C60.5077 44.8486 60.1237 44.4313 59.677 44.5188C59.0706 44.6366 58.4585 44.7802 57.9157 45.0358C57.9243 45.0121 57.931 44.9864 57.9424 44.9636C58.102 44.6404 58.4993 44.4903 58.8197 44.3819C59.6437 44.1025 60.5505 44.0198 61.4164 44.0492C63.2737 44.1129 65.0958 44.6709 66.8551 45.224C66.8941 45.2364 66.9331 45.244 66.973 45.2526C66.9872 45.2583 66.9986 45.2668 67.0129 45.2725C68.0746 45.6708 68.623 46.6754 68.8293 47.7466C69.0165 48.7247 69.2532 50.216 68.4405 50.9783ZM71.0211 51.5325C70.6675 51.8167 70.2664 52.0229 69.8292 52.1455C69.738 52.1712 69.6125 52.2064 69.4813 52.2292C69.6163 52.1085 69.7399 51.9782 69.852 51.8385C70.8329 50.6076 70.7113 48.7922 70.3947 47.3408C70.2617 46.7287 70.0402 46.127 69.7266 45.5881C70.218 45.4921 70.7445 45.629 71.1067 46.0168C71.4545 46.3893 71.637 46.9055 71.8053 47.375C71.984 47.874 72.1379 48.3759 72.1712 48.9082C72.2339 49.8976 71.7958 50.9099 71.0211 51.5325Z" fill="black"/>
<path d="M50.3947 21.6332C50.3595 21.5789 50.3108 21.5064 50.3118 21.5064C50.3328 21.5179 50.3642 21.5741 50.3947 21.6332Z" fill="black"/>
<path d="M58.0289 46.9425C58.0146 46.9805 57.9414 47.0528 58.0118 46.9634C58.0175 46.9568 58.0232 46.9501 58.0289 46.9425Z" fill="black"/>
<path d="M58.3968 50.2921C58.4082 50.359 58.3843 50.3791 58.3968 50.2921Z" fill="black"/>
<path d="M58.4091 50.4198C58.4091 50.4188 58.4082 50.4179 58.4082 50.4179C58.3814 50.3346 58.4063 50.3614 58.4091 50.4198Z" fill="black"/>
<path d="M60.4545 54.2709C60.4688 54.2795 60.488 54.291 60.5157 54.3082C60.5004 54.3082 60.4774 54.291 60.4545 54.2709Z" fill="black"/>
<path d="M58.524 46.5272C58.525 46.5272 58.525 46.5263 58.526 46.5263C58.5965 46.4843 58.5756 46.5043 58.524 46.5272Z" fill="black"/>
<path d="M59.421 46.2249C59.3862 46.2327 59.3746 46.2365 59.421 46.2249Z" fill="black"/>
<path d="M51.1502 23.3507C51.1331 23.2992 51.115 23.2458 51.114 23.243C51.1293 23.2697 51.1407 23.3088 51.1502 23.3507Z" fill="black"/>
<path d="M42.6737 38.1001C42.5102 37.4899 42.1813 36.9462 41.6633 36.5698C41.3477 36.3408 41.0113 36.2125 40.632 36.1412C40.2556 36.0699 39.8925 36.1497 39.5371 36.2695C39.2738 36.3588 39.0295 36.6582 38.9345 36.9073C38.8337 37.1696 38.8308 37.5279 38.9592 37.7846C39.0922 38.0498 39.307 38.2912 39.5969 38.3872C39.8346 38.4661 40.0522 38.467 40.2803 38.4157C40.2813 38.4166 40.2822 38.4176 40.2841 38.4185C40.2661 38.4242 40.248 38.429 40.23 38.4347C40.2509 38.429 40.2718 38.429 40.2918 38.4242C40.3079 38.4366 40.325 38.448 40.3412 38.4604C40.363 38.486 40.383 38.5126 40.403 38.5393C40.4163 38.5687 40.4305 38.5972 40.4419 38.6277C40.4438 38.6381 40.4457 38.6495 40.4476 38.66C40.4457 38.7027 40.4438 38.7465 40.4391 38.7892C40.4144 38.8681 40.3849 38.9451 40.3507 39.0202C40.3336 39.0449 40.3155 39.0696 40.2965 39.0934C40.2537 39.1314 40.2072 39.1647 40.1615 39.1989C40.1093 39.2246 40.057 39.2493 40.0028 39.2702C39.9667 39.2768 39.9306 39.2835 39.8944 39.2882C39.7889 39.2835 39.6834 39.2787 39.5798 39.2569C39.6416 39.2711 39.7043 39.2863 39.7661 39.3006C39.7642 39.3006 39.7623 39.3006 39.7604 39.3016C39.4819 39.2398 39.2348 39.217 38.9563 39.3415C38.6997 39.4565 38.443 39.7074 38.3537 39.9793C38.2606 40.2606 38.2415 40.5828 38.3784 40.8566C38.5039 41.1084 38.7282 41.3907 39.0162 41.4592C39.4287 41.559 39.7338 41.5979 40.1606 41.5666C40.4524 41.5447 40.7546 41.4554 41.0208 41.3404C41.6785 41.0562 42.15 40.5419 42.4674 39.9127C42.61 39.6304 42.6908 39.3044 42.726 38.9926C42.7592 38.7027 42.7497 38.3853 42.6737 38.1001Z" fill="black"/>
<path d="M28.689 48.5413C28.248 48.0936 28.0075 47.6506 27.8934 47.1184C27.8221 46.7876 27.7993 46.5642 27.8088 46.3C27.8221 45.936 27.8716 45.5767 27.9761 45.2316C28.1691 44.5977 28.4533 43.9855 28.8686 43.4666C28.8791 43.4533 28.9627 43.3563 28.9903 43.3231C29.0179 43.2974 29.072 43.2432 29.0815 43.2356C29.1329 43.189 29.1851 43.1453 29.2393 43.1025C29.2659 43.0816 29.3372 43.0313 29.3515 43.0189C29.3962 42.9961 29.4427 42.9752 29.4874 42.9505C29.5083 42.9391 29.533 42.9277 29.5492 42.921C29.5844 42.9143 29.6357 42.9039 29.6689 42.8972C29.7146 42.901 29.8324 42.9029 29.8362 42.9039C30.3818 42.9628 30.8932 42.5313 30.9455 41.9886C30.9987 41.4354 30.5786 40.9383 30.0301 40.8793C28.017 40.6636 26.6682 42.7071 26.1179 44.3752C25.5153 46.203 25.6978 48.3873 27.1036 49.814C27.4885 50.2046 28.075 50.3377 28.5331 49.9689C28.9285 49.6533 29.0768 48.9338 28.689 48.5413Z" fill="black"/>
<path d="M48.4141 19.6999C48.3607 19.6665 48.3168 19.6322 48.2901 19.5979C48.2892 19.5979 48.2892 19.5979 48.2882 19.5969C48.3263 19.6513 48.375 19.6847 48.4141 19.6999Z" fill="black"/>
<path d="M23.9718 37.2998C24.4442 37.4804 24.9736 37.2437 25.1532 36.7713C25.3338 36.2989 25.0971 35.7695 24.6248 35.5898C24.1524 35.4092 23.6229 35.6459 23.4433 36.1183C23.2627 36.5907 23.4994 37.1201 23.9718 37.2998Z" fill="black"/>
<path d="M47.9432 40.3623C48.4156 40.5429 48.945 40.3063 49.1247 39.8339C49.3053 39.3615 49.0686 38.833 48.5962 38.6524C48.1238 38.4718 47.5944 38.7085 47.4147 39.1809C47.2341 39.6523 47.4708 40.1817 47.9432 40.3623Z" fill="black"/>
<path d="M46.6125 42.3916C47.0849 42.5722 47.6143 42.3355 47.794 41.8631C47.9746 41.3907 47.7379 40.8613 47.2655 40.6816C46.7931 40.501 46.2637 40.7377 46.084 41.2101C45.9034 41.6816 46.1401 42.211 46.6125 42.3916Z" fill="black"/>
<path d="M49.8498 42.0703C50.3222 42.2509 50.8516 42.0143 51.0313 41.5419C51.2119 41.0695 50.9752 40.541 50.5028 40.3604C50.0304 40.1798 49.501 40.4165 49.3213 40.8889C49.1417 41.3613 49.3784 41.8897 49.8498 42.0703Z" fill="black"/>
<path d="M23.4385 38.697C22.9661 38.5164 22.4367 38.7531 22.257 39.2255C22.0764 39.6979 22.3131 40.2264 22.7855 40.407C23.2579 40.5875 23.7873 40.3509 23.967 39.8785C24.1475 39.4061 23.9109 38.8767 23.4385 38.697Z" fill="black"/>
<path d="M27.4658 37.6543C26.9934 37.4737 26.464 37.7104 26.2844 38.1828C26.1038 38.6552 26.3404 39.1836 26.8128 39.3642C27.2852 39.5448 27.8147 39.3081 27.9943 38.8358C28.1749 38.3643 27.9382 37.8349 27.4658 37.6543Z" fill="black"/>
<path d="M14.1827 35.4606C14.1542 35.2116 14.1 34.9511 13.9917 34.723C13.9308 34.5938 13.8643 34.4588 13.7702 34.3495C13.6362 34.1936 13.5202 34.09 13.3396 33.9893C13.2779 33.955 13.2123 33.936 13.1448 33.9151C13.0716 33.8923 13.0041 33.8723 12.9281 33.8666C12.7389 33.8543 12.5612 33.8657 12.3825 33.936C12.0821 34.0529 11.8075 34.2963 11.701 34.6061C11.6345 34.8 11.5945 35.0044 11.6326 35.2097C11.6687 35.4074 11.7333 35.6032 11.8626 35.761C11.9681 35.8893 12.0945 35.9862 12.2627 36.0147C12.4072 36.0385 12.5926 36.0043 12.7114 35.914C12.8349 35.8199 12.9366 35.6859 12.9604 35.529C12.9623 35.5452 12.9671 35.5614 12.969 35.5775C12.987 35.7315 13.0621 35.8836 13.1819 35.9853C13.2978 36.0832 13.4813 36.1488 13.6343 36.1269C13.9556 36.0803 14.2217 35.799 14.1827 35.4606Z" fill="black"/>
<path d="M14.0895 36.4291C13.7596 36.3892 13.446 36.5936 13.388 36.931C13.3576 37.1059 13.3234 37.2798 13.2768 37.4509C13.2454 37.5384 13.2074 37.6239 13.1627 37.7057C13.1333 37.7456 13.101 37.7826 13.0667 37.8188C13.0487 37.833 13.0287 37.8463 13.0097 37.8596C12.9831 37.871 12.9555 37.8806 12.928 37.8901C12.9052 37.892 12.8833 37.8967 12.8605 37.8977C12.7141 37.9005 12.544 38.0022 12.4527 38.1106C12.3548 38.2265 12.2892 38.41 12.3111 38.563C12.333 38.716 12.3976 38.8729 12.524 38.9708C12.6599 39.0753 12.8054 39.1152 12.9764 39.1124C13.4118 39.1048 13.8442 38.8367 14.099 38.4936C14.3965 38.0925 14.5096 37.6154 14.5923 37.1316C14.6455 36.8169 14.4155 36.4691 14.0895 36.4291Z" fill="black"/>
<path d="M47.4717 55.1414L47.427 55.1262L47.254 55.5359L47.3035 55.5539C47.6124 55.668 48.1551 55.9522 48.3034 56.5662C48.3937 56.9407 48.291 57.7828 47.4004 57.9977C46.9831 58.0984 46.6942 58.0081 46.5896 57.9644L46.1952 56.3305L46.1458 56.3428C45.9557 56.3885 45.8416 56.341 45.8407 56.34L45.7456 56.2972L46.1477 57.9615C45.9452 58.0224 45.8197 58.2229 45.8673 58.4187C45.8939 58.5318 45.9728 58.6202 46.0745 58.6668C46.1562 58.7048 46.2522 58.7162 46.3492 58.6934C46.4936 58.6582 46.603 58.5546 46.6438 58.4282C46.6448 58.4377 46.6457 58.4463 46.6448 58.4558L46.641 58.5014L46.6856 58.51C46.8919 58.5508 47.159 58.5299 47.505 58.4463C48.0087 58.3246 48.3946 58.0461 48.6189 57.6412C48.8166 57.2857 48.8727 56.8447 48.7729 56.4331C48.6351 55.8562 48.1494 55.3743 47.4717 55.1414ZM46.256 58.3094C46.2617 58.3085 46.2665 58.3085 46.2712 58.3104C46.2722 58.3104 46.2731 58.3113 46.2731 58.3113L46.2769 58.3284C46.2741 58.3332 46.2693 58.336 46.2636 58.3379C46.2532 58.3408 46.2427 58.336 46.2408 58.3284C46.2389 58.3208 46.2494 58.3123 46.256 58.3094Z" fill="black"/>
<path d="M47.3995 54.2822C47.2635 53.7176 46.8216 53.1873 45.9889 53.3878C45.719 53.4525 45.5631 53.5732 45.4804 53.6625L45.4642 53.6796C45.373 53.6131 45.2475 53.5846 45.1249 53.615C44.9082 53.6673 44.7713 53.8754 44.8208 54.0788C44.8445 54.1777 44.9082 54.2613 45.0004 54.3126C45.0869 54.3611 45.1829 54.3754 45.2789 54.3583L45.2903 54.4077H45.2894L45.5118 55.3325C45.4443 55.3915 45.2903 55.5644 45.3635 55.8676C45.3939 55.9931 45.4966 56.1309 45.6639 56.2079C45.796 56.2688 45.968 56.2925 46.1771 56.2431C47.1799 55.9998 47.5857 55.055 47.3995 54.2822ZM46.0982 55.4846C46.2978 55.4371 46.5003 55.4181 46.7018 55.4295C46.5421 55.6386 46.3425 55.7831 46.1429 55.8306C46.1191 55.8363 46.0963 55.8401 46.0726 55.842L46.0032 55.5559L45.9528 55.5692C45.9309 55.5749 45.9081 55.5844 45.8863 55.5949C45.9262 55.554 45.9918 55.5112 46.0982 55.4846ZM46.9755 54.3972C47.0193 54.5807 47.0012 54.7993 46.9252 55.016L46.8672 55.0122C46.5801 54.9808 46.3149 55.0008 46.0051 55.0759C45.969 55.0844 45.9338 55.0939 45.8996 55.1054L45.6601 54.113C45.7095 54.0332 45.8654 53.8412 46.0716 53.7918C46.2275 53.7538 46.4261 53.7851 46.583 53.8688C46.7218 53.9439 46.9023 54.0959 46.9755 54.3972ZM45.2095 53.9676C45.22 53.9648 45.2304 53.9695 45.2323 53.9771C45.2342 53.9838 45.2285 53.9933 45.2171 53.9961C45.2057 53.999 45.1953 53.9933 45.1943 53.9866C45.1924 53.98 45.1981 53.9705 45.2095 53.9676Z" fill="black"/>
<path d="M59.3396 56.0245C59.3035 56.016 59.2645 56.0084 59.2607 56.0141C59.294 56.0179 59.3178 56.0217 59.3396 56.0245Z" fill="black"/>
<path d="M11.9823 40.5238C11.7542 40.4183 11.4833 40.5181 11.3778 40.7453C11.2723 40.9734 11.3721 41.2443 11.5993 41.3498C11.8274 41.4553 12.0983 41.3555 12.2038 41.1284C12.3102 40.9002 12.2104 40.6293 11.9823 40.5238Z" fill="black"/>
<path d="M58.9594 51.2617C58.977 51.27 58.9759 51.2679 58.9594 51.2617Z" fill="black"/>
</svg>
