<svg width="111" height="26" viewBox="0 0 111 26" fill="none" xmlns="http://www.w3.org/2000/svg">
<path d="M18.7457 9.89951C18.6194 9.41479 18.4456 8.96795 18.2251 8.56072C18.0046 8.15348 17.7201 7.80135 17.3733 7.50346C17.0266 7.20556 16.6201 6.97396 16.1549 6.81038C15.6897 6.64594 15.1492 6.56414 14.5343 6.56414C13.6359 6.56414 12.8585 6.74409 12.2038 7.10397C11.5492 7.46471 11.0174 7.94685 10.6075 8.54953C10.1968 9.15306 9.89322 9.83753 9.69692 10.6055C9.49976 11.3726 9.40118 12.1552 9.40118 12.9542C9.40118 13.7532 9.49976 14.5367 9.69692 15.3038C9.89409 16.0718 10.1976 16.7571 10.6075 17.3598C11.0174 17.9633 11.5492 18.4446 12.2038 18.8045C12.8585 19.1652 13.635 19.3451 14.5343 19.3451C15.1967 19.3451 15.7805 19.2324 16.2855 19.0051C16.7896 18.7778 17.2237 18.4644 17.5869 18.0649C17.9493 17.6654 18.2329 17.1996 18.4387 16.6667C18.6437 16.1337 18.7777 15.5629 18.8408 14.9516H21.7274C21.6642 15.9538 21.4472 16.8699 21.0771 17.7007C20.7061 18.5307 20.2054 19.2479 19.575 19.8505C18.9437 20.4532 18.2026 20.919 17.3508 21.2479C16.4991 21.5768 15.5608 21.7412 14.5352 21.7412C13.2735 21.7412 12.1416 21.5105 11.1402 21.0481C10.1379 20.5866 9.29049 19.9564 8.59696 19.1575C7.90256 18.3585 7.37074 17.4269 6.99976 16.3619C6.62878 15.2969 6.44373 14.1613 6.44373 12.9551C6.44373 11.7644 6.62878 10.6365 6.99976 9.57235C7.36988 8.50734 7.90256 7.57491 8.59696 6.7768C9.29049 5.97783 10.1379 5.3433 11.1402 4.87321C12.1416 4.40313 13.2735 4.16895 14.5352 4.16895C15.4813 4.16895 16.3719 4.29809 17.2082 4.55638C18.0444 4.81467 18.7811 5.19091 19.4202 5.68424C20.0593 6.17757 20.5755 6.7768 20.9698 7.48107C21.3633 8.1862 21.608 8.99292 21.7031 9.90124H18.7457V9.89951Z" fill="#1D1D1B"/>
<path d="M28.9412 4.56671H32.088L38.5935 21.3417H35.4233L33.8383 16.9017H27.0958L25.5107 21.3417H22.459L28.9412 4.56671ZM27.9009 14.6693H33.0583L30.5263 7.4561H30.4553L27.9009 14.6693Z" fill="#1D1D1B"/>
<path d="M40.2019 4.56671H47.6543C48.8529 4.56671 49.8309 4.73977 50.5876 5.08415C51.3451 5.42854 51.9279 5.85902 52.3387 6.37559C52.7486 6.89217 53.0288 7.4561 53.1784 8.06739C53.328 8.67781 53.4032 9.24174 53.4032 9.75832C53.4032 10.2749 53.328 10.8354 53.1784 11.4381C53.0279 12.0407 52.7486 12.6012 52.3387 13.1178C51.9288 13.6352 51.3451 14.0623 50.5876 14.3989C49.8309 14.7355 48.852 14.9034 47.6543 14.9034H43.1594V21.3409H40.2019V4.56671ZM43.1594 12.5082H47.4892C47.8204 12.5082 48.1594 12.4609 48.5061 12.367C48.8529 12.2732 49.172 12.1199 49.4643 11.909C49.7557 11.6972 49.9918 11.4157 50.1742 11.0635C50.355 10.7114 50.4466 10.2689 50.4466 9.73593C50.4466 9.1875 50.3671 8.73377 50.2097 8.37303C50.0514 8.01315 49.8387 7.72731 49.5715 7.51551C49.3026 7.30371 48.9956 7.15907 48.6488 7.08158C48.302 7.00324 47.9311 6.96363 47.5376 6.96363H43.1611V12.5082H43.1594Z" fill="#1D1D1B"/>
<path d="M55.9819 4.56671H58.9394V21.3417H55.9819V4.56671Z" fill="#1D1D1B"/>
<path d="M60.95 4.56671H74.6225V7.10397H69.2533V21.3417H66.2959V7.10397H60.95V4.56671Z" fill="#1D1D1B"/>
<path d="M78.9281 4.56671H82.0749L88.5813 21.3417H85.4111L83.8261 16.9017H77.0836L75.4985 21.3417H72.4468L78.9281 4.56671ZM77.8869 14.6693H83.0443L80.5132 7.45696H80.4423L77.8869 14.6693Z" fill="#1D1D1B"/>
<path d="M90.0704 4.56671H93.1931L100.906 16.925H100.952V4.56671H103.768V21.3417H100.645L92.957 9.00756H92.8861V21.3417H90.0713V4.56671H90.0704Z" fill="#1D1D1B"/>
<path d="M108.28 1.8728V24.0366H1.9323V1.8728H108.28ZM108.28 0.151733H1.9323C0.975024 0.151733 0.199341 0.921434 0.199341 1.8728V24.0366C0.199341 24.9871 0.975024 25.7576 1.9323 25.7576H108.279C109.236 25.7576 110.012 24.9879 110.012 24.0366V1.8728C110.013 0.921434 109.236 0.151733 108.28 0.151733Z" fill="#1D1D1B"/>
</svg>
