<svg width="79" height="27" viewBox="0 0 79 27" fill="none" xmlns="http://www.w3.org/2000/svg">
<g clip-path="url(#clip0_56_234)">
<path d="M12.8725 20.0529L16.735 14.2143L16.7315 16.3734H16.73V16.6768H16.7311L16.7136 26.9025C16.7136 26.9262 16.7276 26.8919 16.7494 26.9025C16.7583 26.9062 16.768 26.9025 16.7774 26.9025C16.7813 26.9025 16.7844 26.9037 16.7879 26.9025C16.7917 26.9037 16.7949 26.9025 16.7991 26.9025H22.9364L19.8553 24.5579L17.0296 26.6876V13.532L19.9035 3.29529L11.6178 16.7086L12.8729 20.0525L12.8725 20.0529Z" fill="black"/>
<path d="M26.734 0.959175C26.7305 0.959175 26.7274 0.959175 26.7243 0.959175C26.7173 0.960399 26.7111 0.955912 26.7053 0.959175C26.7037 0.959991 26.7029 0.958359 26.7014 0.959175C26.6971 0.96203 26.6944 0.955912 26.6905 0.959175C26.6851 0.964477 26.6808 0.95265 26.6777 0.959175C26.6765 0.961214 26.6746 0.956728 26.6738 0.959175C26.6742 0.955912 26.6726 0.96203 26.6738 0.959175C26.673 0.963253 26.6703 0.955097 26.6703 0.959175V26.9029H33.0212L29.8648 24.5843L26.9707 26.7018L26.973 1.26628H32.6591L29.8648 3.23735V24.3617L33.125 26.7642C33.125 24.4167 33.1262 0.959175 33.125 0.959175H26.734Z" fill="black"/>
<path d="M43.2498 0.959175H36.8235C36.8196 0.959175 36.8173 0.959175 36.8142 0.959175C36.8072 0.960399 36.8006 0.955912 36.7947 0.959175C36.7928 0.959991 36.7916 0.958359 36.7909 0.959175C36.7866 0.96203 36.7835 0.955912 36.78 0.959175C36.7749 0.964477 36.7703 0.95265 36.7668 0.959175C36.766 0.961214 36.7633 0.957136 36.7629 0.959175C36.7633 0.95632 36.7621 0.96203 36.7629 0.959175C36.7625 0.963253 36.7598 0.955097 36.7598 0.959175V26.9029H48.13L45.6291 24.515H40.1062L37.0621 26.7047L37.0644 1.26628H42.794L40.1066 3.23368V24.515L43.0194 22.0974L47.8856 22.1031L45.7636 24.3237L48.219 26.7365V21.7833H43.2502V0.959175H43.2498Z" fill="black"/>
<path d="M57.7477 26.7365V24.6313H57.7527V21.9852L54.7343 24.5159L57.7477 26.7365Z" fill="black"/>
<path d="M72.11 26.6986L63.3813 13.99L60.5315 14.2249L67.2835 24.3772L72.11 26.6986Z" fill="black"/>
<path d="M60.5724 13.9924L63.4514 13.7502L72.142 0.95921H65.7428C65.7428 0.95921 65.7413 0.95921 65.7405 0.95921C65.7389 0.95921 65.7382 0.95921 65.7366 0.95921H65.7296C65.7168 0.962473 65.7055 0.949015 65.6974 0.95921C65.6958 0.960842 65.6923 0.957579 65.6915 0.95921L57.7676 12.4663V1.09584L57.7723 1.09217V0.95921C57.7723 0.95921 57.7692 0.95921 57.7676 0.95921H51.5748C51.5709 0.95921 51.5678 0.958395 51.5639 0.95921C51.5581 0.960026 51.5523 0.956356 51.5472 0.95921C51.5456 0.960026 51.5449 0.957987 51.5433 0.95921C51.5387 0.962065 51.5352 0.95554 51.5313 0.95921C51.5262 0.964512 51.5216 0.952685 51.5188 0.95921C51.5177 0.960842 51.5157 0.956763 51.5149 0.95921C51.5134 0.962065 51.5149 0.955948 51.5146 0.95921C51.5134 0.963289 51.5118 0.955132 51.5118 0.95921V26.9029H57.6483L54.4507 24.5803L51.811 26.6843L51.8134 1.26672H57.297L54.4507 3.24962V23.3368L57.632 13.2098L65.8726 1.26631H71.4643L67.69 3.21496L60.5724 13.9924Z" fill="black"/>
<path d="M60.0047 19.8188L64.9311 26.9029H72.1354L67.2972 24.6076L65.1592 26.7149L60.136 19.444L60.5316 14.2249L54.4507 23.3364V24.4584L60.0047 19.8188Z" fill="black"/>
<path d="M17.5629 0.959131H17.5579C17.5579 0.959131 17.5555 0.959131 17.5544 0.959131C17.5516 0.959131 17.5509 0.958316 17.5485 0.959131C17.5338 0.962394 17.5217 0.947304 17.5132 0.959131C17.512 0.960763 17.5089 0.957092 17.5073 0.959131L11.477 11.0988L5.47727 0.959131H0.0635604C0.0600632 0.959131 0.0577317 0.959131 0.0542345 0.959131C0.0480172 0.960355 0.0414113 0.956277 0.035194 0.959131C0.0336397 0.960355 0.0328626 0.958316 0.0309196 0.959131C0.0270338 0.961578 0.0243138 0.955869 0.020428 0.959131C0.0153764 0.964841 0.0107134 0.952606 0.00799338 0.959131C0.00682764 0.961171 0.00449616 0.956684 0.003719 0.959131C0.00255326 0.961986 0.00410758 0.955869 0.00333042 0.959131C0.00294184 0.962802 0.000610352 0.955053 0.000610352 0.959131V26.9028H6.15456L3.03737 24.5843L0.300206 26.694V1.26623H5.14425L3.07856 3.18429L11.4742 16.8917L11.5729 11.4414L17.7008 1.26623H22.6059L19.9033 3.29604V24.34L23.0361 26.8197V0.959131H17.5633H17.5629ZM17.6519 1.08107V1.08842L17.6398 1.08107H17.6519Z" fill="black"/>
<path d="M10.1276 19.7498L10.1261 19.7511L6.14196 13.5071L3.078 3.18433L3.1157 24.38L6.23328 26.7573V14.1955L6.24105 14.2077L10.062 20.1956L10.0631 20.1948L10.0643 20.194L10.0662 20.1923C10.0662 20.1923 10.0662 20.1936 10.0666 20.194L12.7094 20.1964L11.4733 16.8909L10.2069 19.8738L10.1276 19.749V19.7498Z" fill="black"/>
</g>
<defs>
<clipPath id="clip0_56_234">
<rect width="79" height="26" fill="white" transform="translate(0 0.954712)"/>
</clipPath>
</defs>
</svg>
