<svg width="438" height="51" viewBox="0 0 438 51" fill="none" xmlns="http://www.w3.org/2000/svg">
<path d="M413.299 3.54596H425.268C429.354 3.54596 432.334 4.40674 434.209 6.12829C436.084 7.80681 437.021 10.4107 437.021 13.9398V15.7475C437.021 18.0716 436.589 19.9653 435.723 21.4286C434.906 22.8919 433.632 23.9464 431.902 24.592V24.7211C435.844 25.9262 437.814 29.068 437.814 34.1466V38.0201C437.814 41.5062 436.781 44.1747 434.714 46.0253C432.695 47.833 429.715 48.7368 425.773 48.7368H413.299V3.54596ZM424.331 21.9451C425.917 21.9451 427.095 21.5792 427.864 20.8476C428.681 20.1159 429.09 18.8893 429.09 17.1678V14.65C429.09 13.0145 428.753 11.8309 428.08 11.0993C427.455 10.3676 426.446 10.0018 425.052 10.0018H421.23V21.9451H424.331ZM425.773 42.2809C427.167 42.2809 428.2 41.9582 428.873 41.3126C429.546 40.6239 429.883 39.4619 429.883 37.8264V33.8884C429.883 31.8225 429.474 30.4022 428.657 29.6275C427.888 28.8098 426.59 28.4009 424.763 28.4009H421.23V42.2809H425.773Z" fill="black"/>
<path d="M396.901 49.3824C393.055 49.3824 390.123 48.414 388.104 46.4772C386.085 44.4975 385.076 41.6784 385.076 38.0201V3.54596H393.007V38.5366C393.007 40.086 393.344 41.205 394.016 41.8936C394.738 42.5822 395.747 42.9265 397.045 42.9265C398.343 42.9265 399.328 42.5822 400.001 41.8936C400.722 41.205 401.083 40.086 401.083 38.5366V3.54596H408.726V38.0201C408.726 41.6784 407.716 44.4975 405.697 46.4772C403.679 48.414 400.746 49.3824 396.901 49.3824Z" fill="black"/>
<path d="M361.654 3.54596H369.586V42.2809H382.636V48.7368H361.654V3.54596Z" fill="black"/>
<path d="M346.304 49.3823C342.506 49.3823 339.598 48.414 337.579 46.4772C335.608 44.5405 334.623 41.8075 334.623 38.2783V14.0044C334.623 10.4752 335.608 7.74223 337.579 5.80549C339.598 3.86873 342.506 2.90036 346.304 2.90036C350.101 2.90036 352.985 3.86873 354.956 5.80549C356.975 7.74223 357.985 10.4752 357.985 14.0044V18.7817H350.486V13.5525C350.486 10.755 349.164 9.35619 346.52 9.35619C343.876 9.35619 342.554 10.755 342.554 13.5525V38.7948C342.554 41.5493 343.876 42.9265 346.52 42.9265C349.164 42.9265 350.486 41.5493 350.486 38.7948V31.887H357.985V38.2783C357.985 41.8075 356.975 44.5405 354.956 46.4772C352.985 48.414 350.101 49.3823 346.304 49.3823Z" fill="black"/>
<path d="M58.4451 3.54591H80.0765V10.0017H66.3766V21.945H77.2644V28.4009H66.3766V42.2809H80.0765V48.7367H58.4451V3.54591Z" fill="black"/>
<path d="M28.7047 3.54591H36.6362V21.945H45.1446V3.54591H53.0761V48.7367H45.1446V28.4009H36.6362V48.7367H28.7047V3.54591Z" fill="black"/>
<path d="M8.64116 10.0018H0.349121V3.54593H24.8647V10.0018H16.5727V48.7367H8.64116V10.0018Z" fill="black"/>
<path d="M300.694 49.3823C296.848 49.3823 293.94 48.414 291.969 46.4772C289.998 44.4974 289.013 41.6784 289.013 38.0201V35.4378H296.511V38.5365C296.511 41.4632 297.881 42.9265 300.621 42.9265C301.967 42.9265 302.977 42.5822 303.65 41.8936C304.371 41.1619 304.731 39.9999 304.731 38.4074C304.731 36.5137 304.251 34.8567 303.289 33.4364C302.328 31.9731 300.549 30.23 297.954 28.2072C294.685 25.6249 292.401 23.3008 291.104 21.2349C289.806 19.126 289.157 16.7589 289.157 14.1335C289.157 10.5613 290.166 7.80679 292.185 5.87004C294.204 3.89025 297.136 2.90036 300.982 2.90036C304.779 2.90036 307.64 3.89025 309.562 5.87004C311.533 7.80679 312.519 10.6043 312.519 14.2626V16.1348H305.02V13.8107C305.02 12.2613 304.683 11.1423 304.01 10.4537C303.337 9.72202 302.352 9.35619 301.054 9.35619C298.41 9.35619 297.088 10.798 297.088 13.6816C297.088 15.3171 297.569 16.845 298.53 18.2652C299.54 19.6855 301.342 21.4071 303.938 23.4299C307.255 26.0122 309.538 28.3579 310.788 30.4668C312.038 32.5757 312.663 35.0504 312.663 37.891C312.663 41.5923 311.629 44.4329 309.562 46.4127C307.543 48.3925 304.587 49.3823 300.694 49.3823Z" fill="black"/>
<path d="M274.203 49.3823C270.357 49.3823 267.449 48.414 265.478 46.4772C263.507 44.4974 262.522 41.6784 262.522 38.0201V35.4378H270.021V38.5365C270.021 41.4632 271.391 42.9265 274.131 42.9265C275.477 42.9265 276.486 42.5822 277.159 41.8936C277.88 41.1619 278.241 39.9999 278.241 38.4074C278.241 36.5137 277.76 34.8567 276.799 33.4364C275.837 31.9731 274.059 30.23 271.463 28.2072C268.194 25.6249 265.911 23.3008 264.613 21.2349C263.315 19.126 262.666 16.7589 262.666 14.1335C262.666 10.5613 263.676 7.80679 265.694 5.87004C267.713 3.89025 270.646 2.90036 274.491 2.90036C278.289 2.90036 281.149 3.89025 283.072 5.87004C285.043 7.80679 286.028 10.6043 286.028 14.2626V16.1348H278.529V13.8107C278.529 12.2613 278.193 11.1423 277.52 10.4537C276.847 9.72202 275.861 9.35619 274.563 9.35619C271.919 9.35619 270.598 10.798 270.598 13.6816C270.598 15.3171 271.078 16.845 272.04 18.2652C273.049 19.6855 274.852 21.4071 277.448 23.4299C280.764 26.0122 283.048 28.3579 284.297 30.4668C285.547 32.5757 286.172 35.0504 286.172 37.891C286.172 41.5923 285.139 44.4329 283.072 46.4127C281.053 48.3925 278.096 49.3823 274.203 49.3823Z" fill="black"/>
<path d="M251.348 2.74662C252.415 2.8161 253.133 3.38719 253.504 3.77787C253.74 4.02665 253.892 4.30465 254.02 4.52787C254.59 4.49617 255.253 4.60873 255.918 5.02006C256.377 5.30363 256.67 5.67917 256.903 6.02787C258.316 5.74192 259.748 6.44389 260.278 7.83256C260.86 9.3804 260.088 11.1132 258.543 11.6997L258.403 11.7701H258.356L257.137 12.1919C256.616 12.3695 255.751 12.6216 254.817 12.4966C254.292 12.4255 253.604 12.2056 252.989 11.6763C252.77 11.4882 252.624 11.2576 252.473 11.0435C251.982 10.9998 251.472 10.8864 250.996 10.5982C250.94 10.5637 250.909 10.494 250.856 10.4576C250.619 10.562 250.373 10.6878 250.082 10.7388C249.173 10.8972 248.439 10.6434 247.879 10.3404C247.561 10.5267 247.214 10.7055 246.801 10.7857C246.611 10.8221 246.416 10.7562 246.239 10.7622C246.133 11.0401 246.007 11.3299 245.817 11.606L245.02 12.4497L244.903 12.5201L244.856 12.7544C244.688 13.4353 244.307 13.9457 243.895 14.3482C244.062 14.7742 244.279 15.3831 244.176 16.106L243.848 17.1138L243.684 17.4654L243.52 17.7935L242.395 19.2701L242.184 19.4576V19.5279C242.181 19.5917 242.143 19.6525 242.137 19.7154C242.971 19.7577 243.615 20.1049 244.012 20.3716C244.423 20.1171 244.938 19.9175 245.559 19.8794C245.985 19.8534 246.37 19.9216 246.707 20.0201C247.086 19.5928 247.678 19.1118 248.535 18.9185C249.745 18.6499 250.626 19.1203 251.231 19.5982C251.998 19.6834 252.729 20.0711 253.246 20.7232C253.82 21.4475 253.959 22.3448 253.785 23.1841V23.3013L253.762 23.5122L253.715 23.7232L253.668 23.981C253.615 24.2373 253.335 25.5087 252.004 26.1607C251.049 26.6258 250.2 26.4338 249.637 26.231C249.327 26.4936 248.949 26.7543 248.465 26.9107C247.572 27.1996 246.801 27.0102 246.168 26.7466C245.617 27.0873 244.949 27.312 244.176 27.2622C243.708 27.2311 243.306 27.0866 242.957 26.9341C242.763 27.1339 242.605 27.3986 242.348 27.5669L241.996 27.8013L241.645 28.0122C240.942 28.4719 240.195 28.6023 239.559 28.6451C239.77 29.3785 239.961 30.4745 239.184 31.5747C238.858 32.035 238.448 32.3172 238.059 32.5357C238.074 32.7547 238.091 32.9965 238.059 33.2388C237.883 34.5375 237.021 35.2581 236.348 35.6763L236.7 35.8872L237.192 36.1919L237.895 36.731C238.118 36.9548 238.335 37.2278 238.504 37.5513C238.847 38.2097 238.907 38.8844 238.856 39.4497C238.834 39.6892 238.728 39.8955 238.668 40.106L238.809 40.1529L239.934 40.7154L240.918 41.5826L241.2 41.9107C241.975 41.504 243.216 41.1741 244.528 41.9576C245.117 42.3107 245.488 42.8042 245.746 43.2466C246.011 43.1928 246.291 43.1464 246.59 43.1529H247.106C247.235 42.5525 247.671 41.1458 249.239 40.5513C250.35 40.1303 251.312 40.426 251.91 40.6919L252.543 39.7544L254.629 40.2701L254.723 40.2935L255.801 40.8091C256.737 41.5145 257.209 42.7428 256.903 43.9497C256.77 44.4715 256.454 44.8765 256.106 45.2388L255.918 45.5669C255.542 46.1463 254.855 46.9412 253.715 47.2779C253.099 47.4593 252.52 47.4467 252.004 47.3482C251.746 47.7582 251.436 48.1912 250.95 48.4966L249.496 48.9888L249.051 49.0357L248.606 49.106C248.181 49.1557 247.744 49.1621 247.317 49.1529L247.223 49.2466L246.731 49.7154C246.461 49.9812 245.942 50.42 245.184 50.6294C244.292 50.8757 243.341 50.7327 242.559 50.231C241.894 49.8039 241.542 49.2307 241.364 48.8951C241.335 48.8418 241.319 48.7839 241.293 48.731C241.215 48.7437 241.141 48.7937 241.059 48.8013C240.136 48.8851 239.305 48.6079 238.668 48.1216L238.082 47.5591L237.473 46.8091L236.887 46.106L236.582 45.7544L236.559 45.731H236.535L236.09 45.5904L235.481 45.4732L234.801 45.4029L234.121 45.3091C233.747 45.2606 233.104 45.1283 232.481 44.6763C231.75 44.1452 231.273 43.3246 231.168 42.4029C231.079 41.6171 231.275 40.9777 231.426 40.6216C231.577 40.2683 231.8 39.9872 231.965 39.7544L231.426 39.1451L231.145 38.7232L230.84 38.2779C230.379 37.5967 230.079 36.7997 229.996 35.9341L229.95 35.4419L229.903 34.9263C229.821 34.041 230.056 33.168 230.582 32.4419C230.73 32.2385 230.909 32.0821 231.075 31.9263C230.997 31.7587 230.85 31.5918 230.793 31.3872C230.62 30.7513 230.572 29.7943 231.121 28.856C231.619 28.0071 232.358 27.6065 232.832 27.4263C232.751 26.5812 232.887 25.5784 233.7 24.6607L234.028 24.2857L234.356 23.9341L235.2 23.2076C235.399 23.0832 235.604 22.9848 235.809 22.9029C235.699 22.6657 235.564 22.4168 235.504 22.1294C235.319 21.2291 235.522 20.4152 235.832 19.7857L236.043 19.3404L236.184 19.0122L236.207 18.8247L236.231 18.4029L236.653 16.8091C236.868 16.3833 237.145 16.0137 237.45 15.7076L237.004 15.2622C236.805 15.0562 236.547 14.7478 236.325 14.3716C236.147 14.0718 235.702 13.2455 235.879 12.1451C236.111 10.7344 237.129 9.9712 237.848 9.68412C238.459 9.4414 239.037 9.44683 239.325 9.44974H239.676C239.915 9.01879 240.21 8.61368 240.614 8.27787L240.637 8.11381L240.684 7.34037L240.942 6.09818C241.156 5.55509 241.548 4.95472 242.254 4.50443C243.44 3.75038 244.593 4.03249 245.254 4.27006C245.775 3.76686 246.516 3.27127 247.575 3.28568C248.107 3.29314 248.554 3.46412 248.934 3.63724C248.962 3.61157 248.975 3.56885 249.004 3.54349C249.442 3.16774 250.257 2.67619 251.348 2.74662Z" fill="#4383EF"/>
<path d="M203.358 3.54593H213.308L221.023 30.5959H221.167V3.54593H228.234V48.7367H220.086L210.568 15.7474H210.424V48.7367H203.358V3.54593Z" fill="#292728"/>
<path d="M178.963 1.87588L180.604 2.27432L181.776 3.0712L182.244 3.49307L182.408 3.65713H182.619L184.002 4.0087L185.104 4.68838L185.174 4.7587L185.244 4.71182L185.76 4.3837L187.19 3.77432C187.469 3.70726 187.766 3.65984 188.08 3.65713L189.065 3.77432L189.486 3.89151L189.908 3.98526L191.08 4.52432C191.984 5.14859 192.412 6.0834 192.604 6.77432C193.043 6.57611 193.738 6.32722 194.549 6.35245C195.055 6.36973 195.696 6.49668 196.307 6.89151C196.622 7.09623 196.894 7.33424 197.104 7.59463L197.572 8.39151L197.76 8.86026L197.971 9.30557L198.322 10.6884L198.276 11.9774L198.182 12.5868L198.088 13.1728H198.065C198.29 13.2986 198.511 13.4352 198.721 13.5946L199.518 14.3446L199.822 14.7196L200.127 15.0712L200.76 15.9853L201.182 17.0634L201.369 17.9071L201.486 18.9853C201.446 19.9378 201.002 20.7063 200.549 21.2821L200.807 21.6103L201.158 22.079C201.416 22.4257 201.753 23.0039 201.838 23.7665C201.93 24.6108 201.684 25.402 201.252 26.0165C201.121 26.202 200.908 26.2954 200.76 26.4384C200.866 26.6451 200.993 26.8535 201.065 27.0946L201.205 28.3134L201.158 29.204C201.067 31.1554 199.624 32.0371 198.721 32.4149C198.955 32.7331 199.215 33.1102 199.377 33.5634C199.599 34.1834 199.722 35.0918 199.377 36.0009L198.861 36.9149L198.557 37.2665L198.276 37.6181C197.84 38.1647 197.318 38.5975 196.752 38.9306C196.682 39.744 196.342 40.6728 195.51 41.3681C194.895 41.882 194.217 42.0564 193.682 42.1415C193.622 42.3249 193.603 42.5244 193.518 42.704L192.697 43.8759L192.393 44.204L192.065 44.5321C190.784 45.8417 189.223 45.6623 188.291 45.3993L187.471 46.2899L186.768 46.8056C185.608 47.6835 184.339 47.643 183.369 47.3446C183.012 47.685 182.645 48.0538 182.127 48.2587L181.236 48.4931L180.815 48.5634L180.369 48.6337C179.217 48.7961 178.281 48.3917 177.58 47.8603L177.276 48.0712C177.032 48.2244 176.69 48.4274 176.291 48.5634C175.923 48.6877 175.205 48.8588 174.369 48.6571C173.366 48.4116 172.625 47.7361 172.236 46.9462C171.911 46.2826 171.881 45.6477 171.885 45.3056L171.908 44.6024V43.8524L171.791 43.5946L171.604 43.1728C171.055 41.9187 171.224 40.6149 171.815 39.5868L172.33 38.6962L172.377 38.4384L172.401 38.1571L172.354 37.8524L172.33 37.7587L172.002 37.3837L171.58 36.9149C171.207 36.488 170.677 35.7134 170.619 34.6415C170.556 33.4519 171.098 32.5197 171.674 31.9462L172.424 31.1962L174.041 30.0009L174.463 29.7665L174.065 29.4149L173.479 28.8993C173.118 28.5809 172.526 27.9743 172.236 27.0712C171.876 25.9394 172.117 24.7679 172.822 23.8837L173.127 23.4853L173.361 23.1806C172.974 22.6246 172.511 21.7363 172.729 20.579C173.014 19.0823 174.157 18.3741 174.651 18.1181L175.283 17.7899L175.893 17.4618L176.619 17.0399L176.901 16.8056L176.268 15.5634L176.174 15.2821H176.151L176.057 15.0009L175.705 14.204L175.846 13.3603V13.2665L176.268 12.1415C176.404 11.9218 176.598 11.7545 176.783 11.579C176.497 11.7504 176.187 11.9337 175.822 12.0243C175.4 12.1282 174.996 12.1517 174.627 12.1181L173.643 11.8837L173.244 11.7431C172.908 12.3329 172.383 12.9953 171.416 13.3134C170.365 13.6576 169.473 13.3712 168.908 13.1259L168.627 13.5243L167.361 13.6649L167.268 13.6884C165.626 13.8951 164.125 12.7291 163.916 11.0868C163.795 10.1307 164.175 9.25939 164.807 8.62588L165.135 8.18057L165.955 7.36026C166.302 7.08944 166.731 6.83105 167.244 6.68057C167.869 6.49976 168.463 6.52421 169.002 6.6337C169.14 6.46201 169.258 6.25275 169.447 6.09463C170.317 5.36826 171.375 5.20346 172.26 5.34463L172.729 5.41495L173.197 5.5087L173.947 5.71963L174.135 5.22745L174.416 4.50088L174.768 3.77432C175.27 2.90903 176.262 1.79308 178.049 1.85245H178.494L178.963 1.87588ZM179.174 8.6962C179.119 8.81506 179.097 8.95205 179.033 9.0712L178.401 10.0321L178.096 10.4071L177.768 10.7821C177.652 10.922 177.492 11.0258 177.346 11.1571C177.919 10.8282 178.588 10.6477 179.291 10.7587C180.438 10.9417 181.295 11.7655 181.635 12.7978L181.705 12.9853L181.776 13.1493L181.869 13.3837L181.94 13.5946C181.96 13.6283 181.999 13.6842 182.033 13.7353L182.361 14.204L182.69 14.6962L183.088 15.4462C183.323 15.9998 183.477 16.6669 183.393 17.3915L183.065 18.5165L182.901 18.9149L182.713 19.2899C182.513 19.7249 182.245 20.0986 181.963 20.4149L181.072 21.2118L180.604 21.5634L180.135 21.8915C180.046 21.9559 179.922 21.9936 179.83 22.0556C179.883 22.2094 179.985 22.3516 180.018 22.5243C180.119 23.063 180.1 23.5887 179.971 24.0712L179.315 25.3603L179.033 25.7353L178.963 25.8056C179.372 26.2074 179.781 26.6533 180.088 27.1884L180.369 27.6571L180.627 28.1259L181.002 28.9931C181.19 29.6222 181.24 30.3248 181.049 31.0321L180.58 32.0868L180.322 32.4618L180.088 32.8603C179.824 33.2719 179.503 33.6105 179.174 33.8915L178.19 34.5712L177.604 34.8759L177.627 34.8993L178.119 36.1884L178.213 36.6337L178.307 37.0556L178.424 38.0165L178.354 39.0009L178.283 39.3993L178.213 39.8212C178.125 40.3545 177.887 40.81 177.674 41.2509C177.705 41.2479 177.737 41.2531 177.768 41.2509C178.612 41.1921 179.46 41.4482 180.158 41.9774C180.575 41.5517 181.138 41.1462 181.893 40.9696C182.585 40.8094 183.207 40.8902 183.721 41.0399C184.062 40.1156 184.861 39.1719 186.158 38.8603C187.025 38.6521 187.788 38.8303 188.291 39.0009C188.476 38.3454 188.815 37.6688 189.463 37.1493C189.989 36.731 190.564 36.5255 191.057 36.4228C191.321 35.6316 191.838 34.9488 192.557 34.454L192.486 34.3837C192.172 34.0334 191.686 33.4358 191.432 32.6493C191.293 32.2195 191.193 31.6023 191.338 30.8915C191.493 30.1367 191.885 29.5118 192.393 29.0634L192.744 28.7587L193.072 28.454L193.963 27.8446C193.785 27.647 193.562 27.4174 193.401 27.1181C193.113 26.5797 192.84 25.7242 193.096 24.7274C193.347 23.7496 193.981 23.1468 194.432 22.829C194.484 22.7921 194.543 22.7681 194.596 22.7353L194.572 22.6415L194.432 22.2196C193.876 20.6493 194.48 19.2891 195.158 18.4696L195.041 18.329L194.69 18.1884L194.221 17.954C193.434 17.5609 192.663 16.8528 192.299 15.8446L192.088 14.7431L192.065 14.3212L192.041 13.8759C192.035 13.7277 192.061 13.579 192.065 13.4306C191.897 13.4667 191.731 13.5794 191.549 13.5946C190.967 13.6418 190.074 13.5617 189.276 13.0087L188.502 12.2821L188.033 11.6259C187.73 11.223 187.507 10.795 187.354 10.3837C187.201 10.4587 187.06 10.5774 186.885 10.6415L185.455 10.8993L185.057 10.9228H184.682C183.557 10.9315 182.625 10.4718 181.963 9.91495L181.611 9.61026L181.588 9.58682H181.354C180.431 9.51787 179.721 9.09608 179.174 8.6962ZM196.471 14.5321L195.885 14.5556L197.08 14.5087L196.471 14.5321Z" fill="#F98457"/>
<path d="M148.613 3.54593H159.356L167.576 48.7367H159.645L158.202 39.7631V39.8923H149.189L147.747 48.7367H140.393L148.613 3.54593ZM157.265 33.7592L153.732 11.422H153.588L150.127 33.7592H157.265Z" fill="black"/>
<path d="M135.813 1.26846C136.614 0.780106 137.562 0.713996 138.391 1.01065C139.06 1.25075 139.47 1.64807 139.633 1.83096C139.82 2.04058 139.944 2.23591 140.008 2.34659L140.336 3.14346L140.477 3.58878L140.594 4.03409V3.98721C140.599 3.99782 140.607 4.03197 140.641 4.08096L140.969 4.54971L141.274 5.01846L141.883 6.23721L142.094 7.80753L142.071 8.2294L142.024 8.65128C141.934 9.85195 141.335 10.7616 140.711 11.37L140.571 11.4872C140.927 11.8803 141.375 12.4845 141.532 13.3388C141.636 13.9172 141.609 14.47 141.461 14.956L140.758 16.2216L140.664 16.3153C140.809 17.2969 140.518 18.0906 140.125 18.7294C140.17 18.792 140.223 18.8503 140.266 18.9169L140.875 20.3935L140.969 20.8153L141.063 21.2607L141.227 22.6903V23.5341L141.133 24.3778C140.944 25.1673 140.498 25.7666 140.078 26.1591C139.659 26.5496 139.159 26.7553 138.766 26.9325C139.102 27.4663 139.46 28.2174 139.352 29.1825C139.265 29.9412 138.907 30.5056 138.555 30.9403C138.704 31.3045 138.869 31.6922 138.907 32.1357L138.883 33.0497L138.813 33.4482L138.789 33.5185L138.86 33.706L139.024 34.1513L139.258 35.5575C139.235 36.0376 139.1 36.5232 138.86 36.9872C138.649 37.3918 138.377 37.7171 138.11 37.9716L137.36 38.5575H137.313C137.316 38.6594 137.363 38.7598 137.36 38.8622L137.196 39.9872L136.961 40.7841L136.914 41.0653L136.891 41.4872L136.844 41.9091C136.828 42.1006 136.759 42.2831 136.727 42.4716L137.196 42.7997L136.938 44.6278V44.745C136.719 46.3841 135.203 47.5384 133.563 47.3232C132.92 47.2376 132.386 46.9148 131.946 46.5028L131.711 46.3388L131.336 45.9638C129.962 44.5679 130.455 42.8242 130.586 42.4013L130.703 42.0028L130.821 41.581L130.868 41.3935L130.891 40.9716L130.938 40.5497L131.196 39.1669L131.289 38.7685L131.313 38.6044V38.4872L131.219 38.0419C130.842 36.1392 131.986 34.9111 132.813 34.3153C132.753 33.8948 132.747 33.455 132.813 33.0028V32.9091L132.532 32.5107C132.127 31.9313 131.702 30.9654 131.922 29.7919C132.03 29.2261 132.242 28.7527 132.508 28.3857C132.479 28.327 132.418 28.2828 132.391 28.2216L132.039 26.6747L132.016 26.2528V25.581C132.052 24.4671 132.609 23.637 133.141 23.1357C133.661 22.6456 134.252 22.349 134.688 22.1747L135.039 22.0341L134.266 21.2607C133.875 20.8812 133.127 20.0252 133.094 18.7294C133.059 17.2704 133.919 16.3151 134.5 15.87L134.547 15.7997C134.543 15.5997 134.546 15.4035 134.571 15.2138L134.243 15.331L133.071 15.5185L132.485 15.6357H132.461C132.607 16.0795 133.083 17.8303 131.688 19.2216C130.978 19.9289 130.146 20.1115 129.508 20.1591L129.485 20.2997L129.368 20.7216L129.25 21.1669C129.02 22.0649 128.462 22.8131 127.68 23.2997C127.29 23.5422 126.893 23.6586 126.532 23.745V24.0497L126.461 24.5185L126.391 24.9638C126.326 25.3707 126.213 25.7747 126.039 26.1591L125.36 27.2372L125.078 27.5419L124.821 27.87L123.907 28.7841L123.578 29.0888L123.227 29.37L123.18 29.4169V29.3935C123.104 29.46 122.952 29.6091 122.828 29.6982C122.808 29.713 122.777 29.7403 122.735 29.7685C122.699 29.792 122.588 29.8628 122.453 29.9325C122.388 29.9661 122.253 30.0347 122.078 30.0966C121.972 30.134 121.482 30.3033 120.86 30.2607C120.514 30.2356 119.964 30.1413 119.407 29.7685C118.789 29.3513 118.394 28.7422 118.211 28.1278C118.007 27.4409 118.098 26.8523 118.188 26.5107C117.693 26.286 116.48 25.6452 116.125 24.1435C115.933 23.3228 116.071 22.6281 116.313 22.081C115.789 21.4811 115.391 20.6524 115.493 19.5263L115 19.9247L114.485 20.1591L113.993 20.4169C113.776 20.5271 113.538 20.5994 113.313 20.6982C113.312 21.2858 113.207 21.9007 112.891 22.4794L112.211 23.37L112.047 23.5341L112.024 23.7685C111.952 24.596 111.659 25.3889 111.133 26.0888L111.18 26.2997L111.157 27.9638C111.09 28.2484 110.989 28.5326 110.852 28.8075L110.313 29.581L110.102 29.8153V30.6591L110.125 31.1044L110.149 31.5732L110.055 32.7216C109.959 33.1031 109.792 33.4739 109.563 33.8232C109.348 34.1499 109.114 34.4284 108.86 34.6435L108.086 35.1357L107.875 35.2528C107.848 35.422 107.826 35.5957 107.805 35.7685L107.758 36.1903L107.688 36.6122C107.546 37.7697 106.914 38.6212 106.188 39.2138V40.6903L106.047 41.5341L106 42.0263L105.977 42.4716L105.953 42.8935C105.907 43.9676 105.445 44.8276 104.828 45.4482L104.172 45.9872L103.914 46.1513L103.868 46.4794L103.821 46.7372L103.727 46.995L103.703 47.0888C103.121 48.6397 101.387 49.429 99.8363 48.8466C98.4276 48.3174 97.7024 46.8531 98.0082 45.4247H97.9847L98.1253 44.6278L98.641 43.081C98.9291 42.5388 99.3491 42.0001 99.9769 41.581L100.047 41.5341C100.069 41.1996 100.086 40.8563 100.141 40.5263L100.211 40.1044L100.258 39.7528L100.118 38.8153C100.017 38.1706 100.058 37.4268 100.375 36.706C100.689 35.9966 101.185 35.4807 101.664 35.1357L101.852 34.995C101.892 34.6728 101.936 34.352 101.993 34.0341L102.063 33.6122L102.157 33.1903L102.461 32.1825C102.857 31.3748 103.512 30.8428 104.102 30.495C104.099 30.2604 104.087 30.026 104.102 29.7919L104.125 29.3466L104.149 28.9247L104.453 27.5653C104.613 27.17 104.837 26.8011 105.11 26.4638V24.7763C105.22 24.2314 105.453 23.6879 105.836 23.1825L106.094 22.831V22.8075L106.141 22.3388L106.516 20.9091C106.661 20.5999 106.879 20.3354 107.102 20.0653C106.925 19.3459 106.923 18.3686 107.477 17.4169C108.017 16.4913 108.836 16.0346 109.399 15.8232L109.961 15.6122L110.266 15.495C110.155 14.9975 110.102 14.4453 110.196 13.8544L110.336 12.9638L110.828 11.5575C111.071 11.132 111.39 10.7533 111.766 10.4325L112.118 10.1278L112.469 9.84659L113.313 9.23721C113.282 8.65791 113.357 7.96537 113.782 7.26846C114.484 6.11765 115.603 5.74261 116.219 5.62784L116.828 5.51065L117.461 5.39346L118.633 5.2294L118.844 5.20596H119.055L120.039 5.27628C120.384 5.36076 120.735 5.51236 121.071 5.74503C121.703 6.18658 122.031 6.76744 122.196 7.17471C122.483 7.89349 122.47 8.57555 122.453 8.83878L122.407 9.30753L122.383 9.77628C122.314 10.8023 121.831 11.5829 121.328 12.1903C121.785 12.5351 122.282 13.0485 122.547 13.831C122.773 14.5014 122.756 15.1155 122.641 15.6357L122.149 16.8544L121.797 17.3935L121.633 17.6513V17.9091C121.64 18.0797 121.593 18.2559 121.586 18.4247L121.703 18.495L122.032 18.7294C122.557 18.3407 123.1 18.1574 123.555 18.0732L123.532 17.6982C123.487 17.264 123.492 16.6431 123.766 15.9872C124.062 15.2806 124.585 14.7183 125.196 14.37C125.472 14.2134 125.772 14.1833 126.039 14.1122C126.116 13.3857 126.411 12.5756 127.164 11.8857L127.774 11.3232L128.711 10.6669C129.029 10.4911 129.352 10.349 129.672 10.245L130.164 10.081L130.633 9.94034L131.196 9.79971C131.274 9.09546 131.489 8.30943 132.11 7.62003L132.391 7.31534L132.696 6.98721L134.172 5.83878L134.36 5.72159V4.94815L134.336 4.2919C134.333 4.14951 134.349 3.95564 134.36 3.77628C134.365 3.68985 134.358 3.55514 134.383 3.40128C134.397 3.31561 134.464 2.8805 134.711 2.4169C134.836 2.18385 135.164 1.664 135.813 1.26846ZM119.102 9.09659L119.196 9.07315H119.102L119.078 8.6044L119.102 9.09659ZM117.391 8.95596L118.891 9.04971L117.461 8.95596V8.93253L117.391 8.95596Z" fill="#3C8669"/>
</svg>
